<?xml version="1.0" encoding="UTF-8" standalone="no"?>
<!-- Created with Inkscape (http://www.inkscape.org/) -->

<svg
   width="179.73192mm"
   height="115.54161mm"
   viewBox="0 0 179.73192 115.54161"
   version="1.1"
   id="svg1626"
   inkscape:version="1.2.2 (b0a8486541, 2022-12-01)"
   sodipodi:docname="logo_boris_white_bkg.svg"
   xmlns:inkscape="http://www.inkscape.org/namespaces/inkscape"
   xmlns:sodipodi="http://sodipodi.sourceforge.net/DTD/sodipodi-0.dtd"
   xmlns="http://www.w3.org/2000/svg"
   xmlns:svg="http://www.w3.org/2000/svg">
  <sodipodi:namedview
     id="namedview1628"
     pagecolor="#ffffff"
     bordercolor="#666666"
     borderopacity="1.0"
     inkscape:pageshadow="2"
     inkscape:pageopacity="0.0"
     inkscape:pagecheckerboard="0"
     inkscape:document-units="mm"
     showgrid="false"
     inkscape:zoom="1"
     inkscape:cx="250.5"
     inkscape:cy="350.5"
     inkscape:window-width="2125"
     inkscape:window-height="1255"
     inkscape:window-x="794"
     inkscape:window-y="1600"
     inkscape:window-maximized="0"
     inkscape:current-layer="layer1"
     inkscape:showpageshadow="2"
     inkscape:deskcolor="#d1d1d1" />
  <defs
     id="defs1623" />
  <g
     inkscape:label="Layer 1"
     inkscape:groupmode="layer"
     id="layer1"
     transform="translate(-20.401414,-85.888337)">
    <g
       id="g753"
       inkscape:export-filename="logo_eye.128px.png"
       inkscape:export-xdpi="18.089165"
       inkscape:export-ydpi="18.089165">
      <g
         id="g4167"
         transform="matrix(0.12666536,0,0,0.12666536,-306.18324,67.593417)">
        <ellipse
           style="fill:#ffffff;fill-opacity:1;stroke:#000000;stroke-width:0.255136;stroke-miterlimit:4;stroke-dasharray:none;stroke-opacity:1"
           id="path3062"
           cx="3294.448"
           cy="598.83575"
           rx="620.42358"
           ry="371.58984" />
        <path
           sodipodi:nodetypes="czzzcssscscssscscssscs"
           style="fill:#1e1e1e;fill-opacity:1;stroke-width:0.791824"
           inkscape:connector-curvature="0"
           id="path6-6-8-4-7-2-3-2-8-7-6-0"
           d="m 3895.9236,600.52501 c -80.2383,-124.58003 -169.849,-214.18041 -283.5864,-277.25122 -113.7375,-63.07081 -204.9213,-87.10758 -322.1357,-86.93653 -117.2148,0.17027 -200.6879,20.87339 -297.5243,66.57561 -96.8359,45.70177 -232.7587,173.03211 -312.9971,297.61214 70.2087,108.21586 158.2333,194.39251 264.0737,258.53001 105.8408,64.13782 220.5232,96.20663 344.0482,96.20663 123.5246,0 238.2072,-32.06881 344.0479,-96.20663 105.8408,-64.1375 193.8654,-150.31415 264.0737,-258.53001 z m 101.3537,0 c 0,17.94785 -5.2789,36.1597 -15.8362,54.63572 -73.9036,121.41291 -173.278,218.6749 -298.1225,291.78698 -124.8445,73.11159 -256.6835,109.66739 -395.5166,109.66739 -138.8334,0 -270.6724,-36.6879 -395.5168,-110.06352 -124.8442,-73.37561 -224.2187,-170.50613 -298.1222,-291.39085 -10.5578,-18.47602 -15.8365,-36.68787 -15.8365,-54.63572 0,-17.94817 5.2787,-36.16011 15.8365,-54.63604 73.9035,-120.88473 173.278,-218.01523 298.1222,-291.39042 124.8444,-73.37562 256.6834,-110.06348 395.5168,-110.06348 138.8331,0 270.6721,36.68786 395.5166,110.06348 124.8445,73.37519 224.2189,170.50569 298.1225,291.39042 10.5573,18.47593 15.8362,36.68787 15.8362,54.63604 z" />
      </g>
      <path
         class="st1"
         d="m 149.86231,156.83704 c -2.06444,17.20247 -21.69335,26.78733 -37.50506,22.92658 v -0.067 c -0.4759,0.0503 -0.90822,-0.18767 -1.36736,-0.27146 -0.15751,-0.0302 -0.30497,-0.0838 -0.44238,-0.16421 -0.43179,-0.0831 -0.7836,-0.23597 -1.21654,-0.35858 -0.26141,-0.067 -0.50941,-0.18097 -0.76076,-0.27816 -0.38069,-0.11763 -0.74058,-0.33592 -1.07244,-0.46916 -1.64551,-0.51946 -2.68211,-1.30326 -4.274,-1.97018 l -0.25575,-0.14807 c -0.0436,-0.0101 -0.2682,-0.0538 -0.31516,-0.0639 -0.75727,-1.3106 -1.7864,-0.62858 -2.28008,-1.02845 -0.26811,-0.23125 -0.576433,-0.38206 -0.918272,-0.47589 -0.422271,-0.27481 -0.945083,-0.0737 -1.038921,0.43567 h -0.06703 c -0.04357,0.372 -0.405514,0.59989 -0.703786,0.77081 -1.2333,1.54497 -3.25417,-0.14746 -4.524335,-0.83784 v -0.067 c -0.05697,-0.0101 -0.110595,-0.0235 -0.167568,-0.0335 v -0.067 c -0.304973,-0.0704 -0.529515,-0.29827 -0.804326,-0.43568 v -0.067 c -0.05697,-0.01 -0.110595,-0.0235 -0.167568,-0.0335 v -0.067 c -0.05697,-0.0101 -0.110596,-0.0235 -0.167568,-0.0335 v -0.067 c -2.583899,-1.44443 -4.581309,-3.8574 -6.300556,-6.23351 v -0.067 h -0.06703 c -0.432326,-0.69373 -0.888111,-1.42098 -1.172976,-2.17838 h -0.06703 c -0.01006,-0.0436 -0.02346,-0.0871 -0.03351,-0.13406 h -0.06703 c -1.2333,-2.87545 -3.337954,-5.36551 -4.557849,-8.24432 h -0.06703 c -0.01006,-0.0436 -0.02346,-0.0871 -0.03351,-0.13405 h -0.06703 c -0.03351,-0.14746 -0.07038,-0.29827 -0.134055,-0.43568 h -0.06703 c -0.204432,-0.76075 -0.676975,-1.42432 -0.804326,-2.21189 h -0.06703 c -0.284866,-0.79427 -0.566381,-1.58518 -0.807678,-2.39621 -0.150812,-0.41557 -0.150812,-0.88141 -0.398812,-1.25676 -0.06368,-0.124 -0.08043,-0.27816 -0.06703,-0.40216 h -0.06703 c -1.102598,-5.19459 -1.1093,-10.67405 0.268109,-15.81837 h 0.06703 c 0.44573,-2.01416 1.166273,-3.99816 2.178383,-5.79783 0.03351,-0.0101 0.06703,-0.0235 0.100541,-0.0335 0.04357,-0.19102 0.07373,-0.3787 0.201081,-0.53621 h 0.06703 v -0.13406 h 0.06703 c 0.09384,-0.12735 0.09049,-0.32843 0.167568,-0.46919 h 0.06703 c 0.09384,-0.44237 0.472542,-0.7574 0.703785,-1.13275 0.392109,-0.56973 1.018814,-0.93503 1.317086,-1.57514 0.995353,-2.09459 1.67903,-4.31989 2.73806,-6.37426 h 0.06703 c 0.01006,-0.067 0.02346,-0.13406 0.03351,-0.20108 h 0.06703 c 0.01341,-0.16757 0.100541,-0.31503 0.167568,-0.46919 h 0.06703 c 2.349303,-5.8213 9.011806,-8.80735 14.813005,-9.98702 l 0.0335,-0.0335 c 2.76152,-0.37535 5.82467,-1.13946 8.44543,0.16757 v 0.067 c 1.09925,0.39881 1.94044,1.34389 2.58055,2.27891 v 0.067 c 0.0335,0.0101 0.067,0.0235 0.10054,0.0335 0.62,0.95848 1.39752,1.82983 1.70919,2.94918 0.19103,0.32508 0.36195,0.64346 0.49601,0.992 0.12735,0.46584 0.42562,0.92833 0.37535,1.42097 h 0.067 c 0.23125,1.91362 0.74401,3.9747 -0.10054,5.79784 0.8479,0.63005 1.81979,1.07243 2.81515,1.40757 v 0.067 c 2.55373,0.56638 6.6759,3.22735 2.31243,4.85946 -0.0101,0.0235 -0.0235,0.0436 -0.0335,0.067 -1.47125,0.52616 -3.02293,0.98194 -4.58801,1.11264 -0.6066,0.0637 -1.24335,-0.17427 -1.81309,0.0603 v 0.067 c -1.68908,0.72724 -3.55244,0.38875 -5.22812,0.33513 -0.44238,0.31503 -0.82108,0.73059 -1.20313,1.116 -0.18768,0.21449 -0.41892,0.41557 -0.50606,0.69373 h -0.067 c -0.0469,0.23795 -0.15081,0.45913 -0.16757,0.70378 h 0.067 c 0.0804,0.46919 0.28487,0.90487 0.43568,1.34054 h 0.067 c 0.0469,0.1106 0.14075,0.21114 0.13405,0.33514 h 0.067 c 0.56303,0.80097 1.53157,1.16292 2.21189,1.84324 0.53622,0.0235 1.16628,-0.0302 1.54163,0.43567 v 0.067 c 0.55297,0.14746 1.12606,-0.0536 1.67568,-0.10054 v -0.067 c 0.25135,-0.0469 0.48595,-0.17091 0.7373,-0.20108 v -0.067 c 0.27816,-0.12065 0.56638,-0.23795 0.77081,-0.46919 0.20108,-0.0972 0.40216,-0.19438 0.57308,-0.34184 0.31168,-0.39881 0.75071,-0.6334 1.2333,-0.75405 0.4759,-0.17427 0.46249,-0.18098 0.85125,-0.23125 0.30833,-0.0838 0.64346,-0.23459 0.93838,-0.0168 0.14746,0.0737 0.22119,0.17427 0.20778,0.35189 0.0201,0.3854 -0.26475,0.47589 -0.58648,0.52281 0.0436,0.32508 0.35859,1.00205 0.67027,1.13946 v 0.067 c 0.17762,0.0536 0.35524,0.0938 0.53622,0.13406 v -0.067 c 0.46919,-0.20778 1.3774,-0.10054 0.88811,0.58984 -0.13071,0.15081 -0.28152,0.372 -0.48595,0.38205 0.0134,0.32844 0.003,0.66357 0.13405,0.97189 0.0335,0.0168 0.0335,0.0168 0.067,0.0335 0.0469,0.10054 0.0838,0.20443 0.13405,0.30162 0.50941,0.11059 1.32044,-0.32508 1.24001,0.56973 -0.0235,0.0101 -0.0436,0.0235 -0.067,0.0335 -0.057,0.21784 -0.29157,0.47254 -0.53622,0.40216 -0.13405,0.54627 -0.34854,1.15957 0.067,1.64217 0.0771,0.0134 0.15752,0.0234 0.2346,0.0335 v 0.067 c 0.96519,-0.0235 0.42227,0.992 -0.30163,0.93837 -1.40087,1.116 -3.35806,-0.42897 -5.66379,0.26811 v 0.067 c -0.96184,0.35524 -1.02217,0.52616 -1.57514,1.34054 -0.43568,0.16757 -0.868,0.32508 -1.34055,0.26811 0.0235,0.59654 -0.30832,1.15286 -0.42227,1.72929 -0.24465,2.56043 0.78422,6.53514 2.93244,8.00303 0.56303,0.52281 1.57179,0.067 2.27557,0.10724 0.22455,-0.003 0.44238,-0.0268 0.64347,-0.12065 v -0.067 c 0.36529,-0.0938 0.67027,-0.33848 1.04227,-0.40886 0.21784,-0.0436 0.41557,-0.17762 0.63341,-0.19438 v -0.10054 c 0.40886,0.067 0.82778,0.0268 1.24,0.0335 0.007,-0.18097 0.19103,-0.24464 0.30162,-0.36864 0.52281,-0.70714 0.92498,-1.53492 0.94173,-2.42638 0.0168,-0.4893 -0.0402,-0.992 0.0503,-1.4746 0.0804,-0.248 0.21784,-0.46918 0.28152,-0.72389 h 0.067 c 0.0503,-0.63005 0.0503,-0.57643 0.40217,-1.07243 0.27816,-0.0101 0.47589,0.0704 0.54292,0.34519 0.0603,0.19103 0.1307,0.39546 0.0938,0.59319 0.21783,0.0603 0.37535,0.23794 0.57643,0.33849 0.11395,0.0704 0.26476,0.0771 0.36195,0.16421 1.21319,0.20779 0.55632,0.0603 1.30703,-0.43903 0.66692,-0.24129 0.78086,0.68368 0.53621,1.1093 -0.0335,0.19438 0.62336,0.65687 0.80433,0.7373 v 0.067 c 0.23125,0.003 0.41892,0.17427 0.63676,0.20109 0.12065,-0.31503 0.44908,-0.40217 0.7507,-0.38541 0.54628,0.0972 0.21114,0.84119 0.17763,1.18973 0.0268,0.61665 0.57978,1.27686 1.19978,1.38076 0.29157,0.10054 0.56303,-0.1173 0.85795,-0.0737 0.18097,0.16086 0.20443,0.68367 0.067,0.87135 -0.12735,0.10389 -0.26141,0.18097 -0.30833,0.34854 -0.38205,1.26346 -1.80303,1.52821 -2.67438,2.33254 h -0.067 c -0.32508,0.51946 -0.81438,0.96519 -1.00541,1.57513 -0.0369,0.28487 0.0771,0.54627 0.0503,0.83449 0.0436,0.69037 -0.6334,1.28356 -0.35189,1.96724 0.21114,0.76746 0.41892,1.53492 0.62335,2.30573 0.1173,0.35189 0.0536,0.67362 0.21784,0.96183 0.17092,0.29492 0.0469,0.67363 0.2346,0.96854 0.15416,0.2279 0.30162,0.40217 0.40216,0.60325 3.38822,-0.20779 6.35418,-5.17449 7.87569,-7.90919 h 0.067 c 0.66357,-1.59189 1.53157,-3.12681 2.27893,-4.69189 h 0.067 c 5.0505,-11.85707 17.32988,-7.73156 13.87128,4.72206 z"
         id="path6-6-0-8"
         style="fill:#6b4041;fill-opacity:1;stroke-width:0.0335135"
         sodipodi:nodetypes="ccccccccccccccccccccccccccccccccccccccccccccccccccccccccccccccccccccccccccccccccccccccccccccccccccccccccccccccccccccccccccccccccccccccccccccccccccccccccccccccccccccccccccc" />
      <path
         class="st2"
         d="m 100.14824,123.3537 h 0.13405 c 0.0235,0.12065 0.3635,-0.26913 0.3869,-0.14513 l 0.16394,0.50409 c 0.067,0.15751 0.10199,0.46342 0.1221,0.63434 0.0938,0.39546 0.38133,0.59452 0.54554,0.96317 0.51611,0.60995 0.81298,0.73674 1.35925,1.31318 l 0.1648,0.35782 c 0.26141,0.0402 0.64955,0.46883 0.91096,0.61964 0.80767,0.56973 1.17794,0.93074 2.11967,1.24576 l 0.14541,0.12516 c 0.0871,0.0101 0.32304,0.13983 0.41352,0.14983 0.007,0.14746 -0.2146,0.38599 -0.32184,0.46642 l -0.0864,0.12113 c -0.0235,0.10055 -0.11802,0.21981 -0.20562,0.28684 -0.42227,0.39211 -0.66551,0.53326 -0.85989,1.08958 -0.0235,0.0101 -0.0533,0.13013 -0.0767,0.14013 -0.31168,0.63006 -0.0982,0.55868 0.0158,1.2256 0.14412,0.14076 -0.27417,0.75683 -0.009,0.75683 0.0101,-0.23125 -0.006,-0.19926 0.004,-0.43721 0.23125,0.30163 0.46049,0.32907 0.52417,0.69437 l 0.0771,0.41157 c 0.0235,0.11059 0.0238,0.16153 0.0573,0.27212 0.0235,0.0101 0.005,0.16891 0.0282,0.17891 0.1307,0.32173 -0.0367,0.61803 0.285,0.82246 0.0637,0.39881 0.37535,0.80768 0.40216,1.20649 h 0.067 c 0.0737,0.17762 0.16086,0.34854 0.20108,0.53621 0.0235,0.0101 0.0436,0.0235 0.067,0.0335 0.0235,0.0771 0.0469,0.15416 0.067,0.23459 h 0.067 c 0.0235,0.0771 0.0436,0.15416 0.067,0.2346 h 0.067 c 0.13406,0.22789 0.27482,0.45578 0.36865,0.70378 0.1039,0.23459 0.30163,0.44908 0.33514,0.70378 h 0.067 c 0.0235,0.0771 0.0436,0.15417 0.067,0.2346 h 0.067 c 0.01,0.057 0.0235,0.11059 0.0335,0.16757 h 0.067 c 0.18433,0.41556 0.36195,0.83448 0.56973,1.23999 -0.007,0.0469 -0.0168,0.0905 -0.0335,0.13406 -0.15751,-0.067 -0.19357,-0.0656 -0.34103,-0.1494 -0.0695,-0.0519 -0.12529,-0.0797 -0.18646,-0.1475 -0.19153,-0.12429 -0.29693,-0.27953 -0.51142,-0.2058 -0.17427,0.13405 -0.0268,0.35859 0.067,0.5027 l 0.0331,0.0381 0.0267,0.0434 c 0.24465,0.48594 0.59707,0.90715 0.6775,1.46012 0.17428,0.40216 0.33179,0.81103 0.53957,1.19643 0.0436,0.0804 0.0369,0.16757 0.0302,0.24465 -0.5999,0.10389 -0.77417,-0.52951 -1.20649,-0.43568 -0.19103,0.16422 -0.0737,0.63006 -0.1039,0.87471 -0.007,0.40886 -0.003,0.81102 0.0402,1.21654 0.003,0.65686 -0.0603,1.26681 0.0905,1.91362 0.0704,0.2614 0.0536,0.55967 0.20778,0.78756 0.0302,0.18433 0.007,0.38541 0.067,0.56973 -0.31168,0.0101 -0.51276,-0.22454 -0.7373,-0.40216 v -0.067 h -0.067 c 0.26141,0.68032 0.53957,1.26345 1.03892,1.80972 0.30498,0.32844 0.25806,0.40217 0.50271,0.67027 0.21784,0.26811 0.40216,0.55968 0.60324,0.83784 0.12735,0.057 0.16087,0.19438 0.2346,0.30162 0.60659,0.63006 1.02216,1.47795 1.7427,2.01081 v 0.067 c -0.69038,-0.0436 -1.32043,-0.32843 -1.91027,-0.67027 -0.01,-0.0235 -0.0235,-0.0436 -0.0335,-0.067 -0.27482,-0.12735 -0.53957,-0.26475 -0.7373,-0.5027 -0.057,-0.0771 -0.15081,-0.0972 -0.2346,-0.13405 -0.0905,-0.0737 0.087,-0.0815 -0.037,-0.0849 -0.0268,0.30162 1.24797,1.21734 1.54959,1.32458 0.01,0.0335 0.28188,0.0897 0.29188,0.12328 0.43903,0.248 0.46108,0.66794 0.94368,0.84892 v 0.067 c 0.0804,0.0168 0.16421,0.0235 0.23459,0.067 v 0.067 c 0.15081,0.007 0.28152,0.0905 0.40887,0.16086 0.35859,0.19773 0.7373,0.34854 1.09924,0.54292 v 0.067 c 0.0804,0.0168 0.16422,0.0235 0.2346,0.067 v 0.067 c 0.0804,0.0168 0.16422,0.0235 0.23459,0.067 v 0.067 c 0.0804,0.0168 0.16422,0.0234 0.2346,0.067 v 0.067 c 0.34854,0.057 0.63341,0.33513 0.89146,0.56303 0.63341,0.45913 1.21319,0.97859 1.70919,1.58518 1.07914,1.02552 1.9639,2.2119 2.65093,3.53903 0.28822,0.80432 0.372,1.68238 0.46919,2.53027 0.0637,0.48259 0.26141,0.94173 0.27816,1.43438 -0.46919,0.20108 -0.79427,-0.30498 -1.116,-0.55968 -0.20443,-0.14411 -0.29492,-0.46919 -0.59319,-0.41222 -0.2413,0.97525 -0.41222,1.96725 -0.70043,2.93579 -0.10725,0.38205 -0.28822,0.73059 -0.37201,1.11935 -0.0771,0.0235 -0.15416,0.0168 -0.23459,0 -0.2413,-0.21784 -0.35525,-0.55297 -0.5027,-0.83784 -0.27147,-0.56638 -0.54628,-1.13276 -0.80433,-1.70919 -0.22119,0.0972 -0.19773,0.39546 -0.30833,0.58314 -0.10389,0.21784 -0.16086,0.44908 -0.19438,0.69038 -0.19437,0.44237 -0.22118,1.10259 -0.37535,1.44778 -0.0838,0.22119 -0.0503,0.48259 -0.16086,0.69708 -0.17427,0.0871 -0.372,0.16757 -0.56973,0.16757 v 0.067 c -0.16422,0.057 -0.32173,0.15081 -0.50271,0.13406 v 0.067 c -0.89481,0.248 -1.79633,0.46584 -2.7146,0.60325 -0.36195,0.057 -0.85795,-0.067 -1.17297,0.10054 -0.0302,0.0771 -0.0402,0.15416 -0.0335,0.23459 0.0402,0.0503 0.0804,0.0972 0.13406,0.13406 v 0.067 c 0.19102,0.007 0.372,0.0369 0.53621,0.13406 v 0.067 c -1.47124,0.43568 -2.84865,0.67363 -4.28974,0.46919 v -0.067 h -0.36865 c -0.20778,0.3921 0.23125,0.63675 0.53622,0.77081 v 0.10054 c -0.72724,-0.0905 -1.39417,-0.43568 -2.11136,-0.56973 v -0.067 c -1.17298,-0.24465 -1.98401,-0.76746 -2.9492,-1.27351 v -0.067 c -0.057,-0.0101 -0.11059,-0.0235 -0.16757,-0.0335 v -0.067 c -0.057,-0.0101 -0.11059,-0.0235 -0.16757,-0.0335 v -0.067 c -0.522806,-0.15416 -0.914915,-0.58984 -1.407566,-0.80432 v -0.067 c -0.150811,-0.0335 -0.254703,-0.14076 -0.36865,-0.2346 -0.227892,-0.0905 -0.727244,-0.41221 -0.817731,-0.6334 0.04022,-0.7373 1.199787,-0.79427 1.756112,-0.97524 0.01006,-0.0235 0.02346,-0.0436 0.03351,-0.067 0.291568,-0.11395 0.703785,-0.35859 0.971895,-0.36865 v -0.067 c 0.26476,-0.22789 0.53957,-0.3787 0.80432,-0.60324 0.18098,-0.35859 0.52952,-0.6133 0.63676,-1.0054 0.0335,-0.0101 0.067,-0.0235 0.10054,-0.0335 -0.007,-0.25135 0.20109,-0.43902 0.36865,-0.60324 h 0.067 c -0.0101,-0.18768 -0.0235,-0.37535 -0.0335,-0.56973 -0.31502,-0.1173 -0.62335,0.0536 -0.93838,0.0335 -0.0637,-0.16756 -0.19102,-0.32173 -0.20108,-0.5027 h -0.067 c -0.17092,-0.6133 -0.28822,-1.22994 -0.38876,-1.85665 -0.11729,-0.28151 0.21114,-0.42562 0.28822,-0.65686 h 0.067 c 0.0536,-0.79092 -0.46584,-0.84454 -1.00541,-0.43568 -0.331782,0.17092 -1.65892,-1.22324 -1.541623,-1.54162 -0.04357,-0.0235 -0.08714,-0.0436 -0.134054,-0.067 0.04357,-0.38541 0.325082,-0.50271 0.167568,-1.00541 -0.164216,-0.0972 -0.351893,-0.0905 -0.536217,-0.067 -0.103893,0.0771 -0.180974,0.124 -0.301622,0.16757 -0.02346,0.0536 -0.05697,0.0938 -0.100542,0.13406 -0.834488,0.0871 -1.668977,0.0905 -2.412979,-0.33514 -0.03016,-0.35859 0.261407,-0.65686 0.100542,-1.07243 -0.211136,-0.21114 -0.462488,-0.21449 -0.660218,0.0235 -0.154163,0.17092 -0.378704,0.30162 -0.412217,0.54627 h -0.06703 c -0.0034,0.0469 -0.01676,0.0905 -0.03351,0.13405 -0.844543,0.4893 -1.048976,1.4813 -1.206489,2.37946 h -0.06703 c -0.120649,1.18303 -0.506055,1.4947 -1.57514,0.87135 -0.09719,-0.0737 -0.184325,-0.124 -0.234594,-0.23459 -0.288217,-0.10054 -0.673623,-0.0235 -0.891462,-0.26141 -0.29492,-0.46919 -0.636758,-0.90486 -0.941732,-1.36735 -0.445731,-0.69373 -1.119354,-1.35394 -1.451139,-2.05773 0.03351,0.19773 0.04692,0.40216 0.03351,0.60325 -0.489299,0.28821 -0.663569,-0.70044 -0.831137,-1.00876 -0.46919,-1.04562 -0.784218,-2.15157 -1.213192,-3.21394 -0.01006,0.0101 -0.02346,0.0234 -0.03351,0.0335 -0.02011,0.44573 -0.01341,0.89481 -0.03351,1.34054 -0.01006,0.0101 -0.02346,0.0235 -0.03351,0.0335 -0.402164,0.1307 -0.472543,-0.34519 -0.549624,-0.63005 -0.134053,-0.38541 -0.201081,-0.81103 -0.355244,-1.17968 -0.100541,-0.372 -0.07708,-0.80097 -0.268109,-1.13946 -0.03686,-0.2547 -0.05362,-0.5161 -0.130702,-0.7641 -0.224541,-1.08584 -0.338488,-2.19849 -0.432325,-3.30443 -0.150812,-1.46454 -0.311677,-2.93244 -0.274812,-4.41038 0.07708,0.007 0.157513,0.0201 0.234595,0.0335 0.56638,0.50941 0.871353,0.0369 1.407571,0.93838 v 0.067 c 0.03351,0.0101 0.06703,0.0235 0.100541,0.0335 0.147459,0.18768 0.294919,0.40551 0.435676,0.60324 v 0.067 h 0.06703 c 0.01006,0.057 0.02346,0.1106 0.03351,0.16757 h 0.06703 c 0.157515,0.248 0.348541,0.51276 0.496001,0.77081 0.09384,0.18432 0.281516,0.32173 0.308326,0.53622 h 0.06703 c 0.01006,0.057 0.02346,0.11059 0.03351,0.16756 h 0.06703 c 0.117297,0.22119 0.130703,0.16422 0.134055,0.30162 h 0.06703 c 0.378704,0.68703 0.975246,1.22995 1.447788,1.83654 0.184324,0.53287 0.563028,1.22995 1.2333,1.07914 0.191027,-0.19773 0.09384,-0.51946 0.10054,-0.77081 -0.221189,-0.29492 -0.415567,-0.73395 -0.164216,-1.07579 0.358596,-0.51275 0.787569,-1.13945 1.427679,-1.28356 0.197731,0 0.348541,0.15081 0.482596,0.28151 0.452434,0.24465 1.283571,0.7373 1.139463,-0.20108 h -0.06703 c -0.06032,-0.3653 -0.378704,-0.56303 -0.536217,-0.87135 -0.07373,-0.45914 -0.03351,-0.94173 -0.03351,-1.40757 0.03687,-0.17762 0.144108,-0.29492 0.164216,-0.47254 0.539569,-1.27016 1.162922,-0.31838 1.947141,-0.6334 0.01006,-0.0335 0.02346,-0.067 0.03351,-0.10054 h 0.100542 c -0.01676,-0.15752 -0.0067,-0.31838 -0.06703,-0.46919 -0.04692,-0.0268 -0.08378,-0.0469 -0.134055,-0.067 v -0.067 h -0.06703 c -0.288217,-0.37535 -0.439029,-0.29827 -0.603245,-0.83783 h -0.06703 c -0.05697,-0.12065 -0.150811,-0.2279 -0.134053,-0.36865 h -0.06703 c -0.180973,-0.39211 -0.237947,-1.53492 0.03351,-1.87676 0.308325,-0.0603 0.653516,0.0536 0.938381,-0.10054 0.144109,-0.21448 0.194379,-0.55632 -0.06703,-0.70378 -0.113947,-0.20108 -0.328433,-0.29157 -0.536218,-0.36865 v -0.067 c -0.489298,0.0168 -0.744002,-0.74065 -1.441084,-0.93838 v -0.067 c -1.397517,-0.39546 -2.835251,0.057 -4.256227,-0.067 -0.07038,-0.0235 -0.07038,-0.0235 -0.134054,-0.0503 -0.137407,-0.0905 -0.31838,-0.067 -0.449083,-0.17092 -0.09384,-0.10724 -0.04357,-0.2547 -0.08714,-0.38205 -0.164216,-0.31503 -0.425623,-0.56973 -0.7373,-0.7373 v -0.067 h -0.06703 c -0.02681,-0.20778 -0.609948,-0.40216 -0.804326,-0.43567 0.08713,-0.58984 0.646811,-0.90487 0.904867,-1.40757 h 0.06703 c 0.06703,-0.28486 0.274811,-0.5094 0.425623,-0.7574 0.29827,-0.38876 0.519461,-0.86465 0.881407,-1.18638 0.130703,-0.36195 0.646813,-1.1093 0.938381,-0.46919 0.630055,-0.67697 1.183029,-1.46789 1.709193,-2.2454 h 0.06703 c 0.107242,-0.31838 0.395459,-0.53957 0.61665,-0.78422 0.227892,-0.2413 0.281514,-0.41892 0.656866,-0.35524 0.32173,0.42227 0.05697,0.99535 0.06703,1.47459 0.965191,-1.38411 2.657628,-3.36475 4.202604,-4.2294 0.700434,-0.42227 1.353949,-0.91827 2.024222,-1.38411 0.304973,-0.21784 0.663568,-0.33849 0.968543,-0.55297 0.251352,-0.16087 0.462486,-0.3787 0.710484,-0.53622 z"
         id="path8-7-9-8"
         style="fill:#c99378;fill-opacity:1;stroke-width:0.0335135"
         sodipodi:nodetypes="cccccccccccccccccccccccccccccccccccccccccccccccccccccccccccccccccccccccccccccccccccccccccccccccccccccccccccccccccccccccccccccccccccccccccccccccccccccccccccccccccccccccccccccccccccccccccccccccccccccccccccccccccccccccccccccccccccccccccccccccccccccc" />
      <g
         id="g128-3-6-7"
         transform="matrix(0.0335136,0,0,0.0335135,72.331956,85.449938)">
        <path
           class="st4"
           d="m 2328.6,1995.8 c -13.5,251.8 -112.6,527.5 -339.5,661.5 -232.4,148.6 -523.7,228.8 -794.9,157 -9.82,-2.2951 -29.8982,-7.98 -40.8,-10.1 -16.6651,-5.2111 -34.7203,-11.3514 -49.5,-15.6 -7.8,-2 -15.2,-5.4 -22.7,-8.3 -20.1458,-6.4971 -40.8526,-16.9703 -59.8,-24 -10.8,-4.6 -22.3,-7.2 -32.5,-13.2 -37.25403,-13.6759 -67.74393,-31.404 -101.7,-46.8 -16.6,-9.2 -35.1,-14.6 -50.6,-25.8 -8,-6.9 -17.2,-11.4 -27.4,-14.2 -12.6,-8.2 -28.2,-2.2 -31,13 h -2 c -1.3,11.1 -12.1,17.8 -21,23 -36.8,46.1 -97.1,-4.4 -135,-25 v -2 c -1.7,-0.3 -3.3,-0.7 -5,-1 v -2 c -9.1,-2.1 -15.8,-8.9 -24,-13 v -2 c -1.7,-0.3 -3.3,-0.7 -5,-1 v -2 c -1.7,-0.3 -3.3,-0.7 -5,-1 v -2 c -77.1,-43 -136.7,-115.2 -188,-186 v -2 h -2 c -12.9,-20.7 -26.5,-42.4 -35,-65 h -2 c -0.3,-1.3 -0.7,-2.6 -1,-4 h -2 c -36.9,-85.8 -99.6,-160.1 -136,-246 h -2 c -0.3,-1.3 -0.7,-2.6 -1,-4 h -2 c -1,-4.4 -2.1,-8.9 -4,-13 h -2 c -6.1,-22.7 -20.2,-42.5 -24,-66 h -2 c -8.5,-23.7 -16.9,-47.3 -24.1,-71.5 -4.5,-12.4 -4.5,-26.3 -11.9,-37.5 -1.9,-3.7 -2.4,-8.3 -2,-12 h -2 c -32.9,-155 -33.1,-318.5 8,-472 h 2 c 13.3,-60.1 34.8,-119.3 65,-173 1,-0.3 2,-0.7 3,-1 1.3,-5.7 2.2,-11.3 6,-16 h 2 v -4 h 2 c 2.8,-3.8 2.7,-9.8 5,-14 h 2 c 2.8,-13.2 14.1,-22.6 21,-33.8 11.7,-17 30.4,-27.9 39.3,-47 19.4,-38.6 33.4,-79.9 49,-120.2 2,-5.3 3.1,-11.3 7.7,-15.1 2.7,-6 4.9,-12.2 8,-18.1 3.2,-6.1 5.4,-12.6 8,-18.9 3.5,-5.8 7.3,-11.4 9,-18 h 2 c 0.3,-2 0.7,-4 1,-6 h 2 c 0.4,-5 3,-9.4 5,-14 h 2 c 70.1,-173.7 268.9,-262.8 442,-298 l 1,-1 c 82.4,-11.2 173.8,-34 252,5 v 2 c 32.8,11.9 57.9,40.1 77,68 v 2 c 1,0.3 2,0.7 3,1 18.5,28.6 41.7,54.6 51,88 5.7,9.7 10.8,19.2 14.8,29.6 3.7,13.9 12.7,27.7 11.2,42.4 h 2 c 6,32.7 7.6,66.2 11.2,99.3 0.3,13.3 0,26.6 -2.2,39.7 -3,11.9 -9.5,22.5 -12,34 25.3,18.8 54.3,32 84,42 v 2 c 30.8,9.4 63,21.1 89.7,39.6 60.2,41.7 41,83 -20.7,105.4 -0.3,0.7 -0.7,1.3 -1,2 -44,15.8 -90.2,29.3 -136.9,33.2 -18.1,1.9 -37.1,-5.2 -54.1,1.8 v 2 c -41.4,18.8 -90.8,12.8 -131.7,12.1 -8.1,-0.4 -16.2,-3.9 -24.3,-2.1 -13.2,9.4 -24.5,21.8 -35.9,33.3 -5.6,6.4 -12.5,12.4 -15.1,20.7 h -2 c -0.5,2.6 -1.3,5.2 -2.1,7.8 l -0.9,-1.8 c -4.4,6.7 -3.3,13.6 -4,21 -5.3,10.2 -4.4,20.9 -4,32 l -4,1 v -2 c -0.7,-0.3 -1.3,-0.7 -2,-1 -0.4,0.7 -0.6,1.4 -0.8,2.1 -7.4,-20.2 -7.7,-44.2 0.8,-64.1 0.7,-0.3 1.3,-0.7 2,-1 3.1,-13.4 25.9,-36 37,-45 v -2 c 3.5,-1.4 6.1,-3.1 9,-6 v -3 c -2.6,-0.3 -5.3,-0.7 -8,-1 v -2 c -35.6,-11.8 -58.71205,-25.6891 -86.01205,-50.4891 L 911.2,1240.5637 c -7.10883,-6.5272 -6.3,-8.1637 -11,-11.3637 -0.3,-1 -1.82494,-1.7955 -2.12494,-2.7955 -6.9,-3.9 -10.57506,-10.3045 -15.47506,-16.3045 -7.6,-9.8 -16.9,-18.5 -22.5,-29.5 -11.1,-16.9 -15.6,-36.3 -20.8,-55.4 -7.9,-8.3 -15.8,-16.4 -22.9,-25.5 -7.9,-7.5 -11.2,-18 -17.1,-26.5 -0.1,-3.1 -0.1,-3.1 0,-6 22,-0.8 35.7,38.9 54,44 16.2,-35.3 65.2,-65.8 96.7,-83.9 37.2,-20.8 79.7,-21.4 120.3,-30.4 32.1,-6.9 107.9,-23.8 120.4,17.3 0.6,18 21.4,8.9 20.6,44.1 2.7,3.6 7.2,3.5 11,5 17.7,-35 11.1,-76.6 7,-114.1 -2.3,-13.7 -1.4,-25.3 -3.8,-38.9 -2.5,-12 -7.4,-23.4 -11.2,-35 h -2 c 0.8,-7.1 -3,-12.5 -7,-18 -4,-8.1 -5.6,-19.6 -13,-25 -2.3,-6.2 -4.6,-12.3 -8,-18 -2.7,-2.3 -3.9,-4.3 -5,-7.8 -2.2,-4.7 -3,-10.7 -8,-13.2 -3,-9.2 -10.3,-16 -14,-25 -0.7,-0.3 -1.3,-0.7 -2,-1 -13.5,-25.1 -34.1,-46.7 -54,-67 h -4 c -0.3,-1 -0.7,-2 -1,-3 -9.4,-6.8 -21.1,-10 -31.5,-15 -12.4,-5.8 -23.9,-12.4 -37.6,-14.6 C 844,649.9 631.7,711.6 494.3,836.3 v 2 c -14.8,8.7 -69.5,69.6 -69,86 -1.3,0.7 -2.7,1.3 -4,2 -4,10.6 -12,20.6 -13,32 -1,0.3 -2,0.7 -3,1 -3.8,10.3 -9.6,20.2 -11,31 h -2 c -12.7,23.3 -21.2,48.8 -31.7,73.1 -4.3,9.4 -7.8,19.1 -11.4,28.8 -3.7,11.2 -10.9,21.1 -11.9,33.1 h -2 c -10.7,21.6 -18.3,45.4 -34.8,63.4 -4.7,5.9 -11.2,10 -16.2,15.6 -4.7,8.9 -13.7,14.4 -20,22 -3.3,9.8 -14.9,14.4 -14,26 -1,0.3 -2,0.7 -3,1 -0.7,1 -1.3,2 -2,3 v 4 h -2 c -2.8,8.5 -7.2,15.9 -8,25 -8.1,11.9 -10.8,24.5 -16.3,37.6 -5,14.2 -14.3,27.2 -15.7,42.4 h -2 c -4.2,11.4 -7,15.8 -9,28 h -2 c -1.7,9.2 -6.5,17.8 -7,27 h -2 c -1.3,5 -3.4,9.8 -3,15 h -2 c -66,188.2 -58.3,398.1 8,585 h 2 c 1.2,5.8 2.6,12.1 6,17 -0.3,6.1 2.4,11.4 5.3,16.6 5.5,11.7 9.3,24.2 13.7,36.4 0.7,0.3 1.3,0.7 2,1 16.5,46.2 45.1,87.4 67,131 h 2 c 1.9,5.2 4.5,10.1 7,15 h 2 c 1.7,4.3 5.6,8.3 6,13 h 2 c 7.7,17.3 20.4,31.6 28,49 h 2 c 2.8,10.7 11.3,20.1 14,29 h 2 c 2.3,5.7 4.6,11.3 7,17 h 2 c 1.5,4.5 2.6,8.8 5,13 h 2 c 1.5,7 5.8,11.3 7,18 h 2 c 4,16.5 14.1,30.4 20,46 h 2 c 61.9,105 156.9,191.4 266,245 0.3,0.7 0.7,1.3 1,2 37.2,20.7 86.9,10.4 105,-30 6.6,-22.9 7,-42.1 -3.7,-63.6 -12.9,-41.2 -46.8,-70.6 -76.3,-100.4 -23.3,-27.2 -42.6,-57.3 -59,-89 h -2 c -19.2,-44.3 -34.3,-95.2 -76,-124 h -2 v -2 c -2.2,-1.4 -4.2,-2.3 -7,-2 v -2 c -7.3,-0.6 -13,-4.9 -20,-6.4 -10.5,-3.3 -21.5,-3.7 -32.1,-6.4 -8.4,-1.8 -16.3,-6.3 -24.9,-6.2 v -2 c -11.1,-2 -21.1,-8.1 -32,-10 v -2 c -6.5,-2.4 -13.3,-5.9 -17,-12 5.3,1 10.5,3.2 16,3 v 2 c 12.7,5.5 26.5,7.1 39.7,11.2 22.7,7.2 48.5,3.6 69.3,16.8 9.5,0.7 18.6,3.6 28.1,4.9 5.8,-0.1 7.2,4.3 10.7,7.8 32.1,18.6 44.6,11 48.2,-25.6 h 2 c 3.1,-23.9 13,-59.4 36,-71 0.5,-1.3 0.9,-2.6 1,-4 h 2 c 1.5,-6.1 5.8,-10.2 10.3,-14.3 5.6,-7.4 14.9,-10.3 21.7,-2.7 2.3,7.9 1.5,18.1 -3,25 -0.1,2.3 -0.1,4.7 0,7 10.7,4.6 21.5,10.3 33.4,11.2 12.8,-0.4 26,0.6 38.6,-1.2 1.5,-1.5 2.9,-3.1 4,-5 3.2,-1.5 5.3,-1.8 8,-4 5.3,-0.4 11.2,-0.9 16,2 3.6,10.7 -0.3,16.8 -5,26 0.2,1.8 0.4,3.2 1,5 1,0.3 2,0.7 3,1 0.8,14 15.8,24.1 24.4,34.3 6.3,4.7 12.9,13.8 21.6,11.7 6,-6.3 16.8,-9 25,-6 5,5.1 4.7,12.4 5,19 -1,0.3 -2,0.7 -3,1 -1.8,4.7 -5.1,8 -8,12 1.6,21.3 6.8,41.5 12,62 h 2 c 1.6,5.2 3.3,10.3 6,15 9.4,-0.1 18.7,-4 28,-1 0.3,5.6 0.7,11.2 1,17 h -2 c -4.6,5.2 -11.1,10.5 -11,18 -1,0.3 -2,0.7 -3,1 -3.4,10.9 -12.6,18.7 -18,28.7 -6.7,8.4 -17.4,12.3 -25,19.3 v 2 c -10.2,1.9 -19.5,7 -29,11 -0.3,0.7 -0.7,1.3 -1,2 -14.9,5.5 -42.5,6.4 -51,20 -15.2,8.2 6.7,53 5,68 -7.1,0.9 -12.8,6.6 -10,14 2.6,4.4 6.5,7.4 8.1,12.5 3.4,10.1 5.5,20.5 8.9,30.5 0.6,10.3 0.1,20.7 0,31 16.4,-1.1 31,5.4 45.2,12.7 12.4,6.6 22.7,17.4 36.8,20.3 0.7,1 1.3,2 2,3 9.5,4.5 19.2,8.3 28.6,13.2 6.3,2.4 11.4,8.4 18.4,7.8 v 2 c 213.1,95.1 409,160 644.8,118.2 231.9,-37.6 538.5,-183 642.2,-404.2 h 2 c 2.2,-4.9 4.5,-9.8 6,-15 h 2 c 58.8,-129.3 129.1,-349.7 79.4,-486.9 -134.7,-231.7 -324,-24.2 -392.4,140.9 h -2 c -15.6,33.9 -36,66.2 -49,101 h -2 c -2.4,4.9 -6.8,9.2 -6,15 h -2 c -55.8,92.3 -124.3,207.4 -237,232 -35.5,4.1 -66.5,-17.2 -96.3,-33.5 -25.5,-14.3 -55.9,-25 -77.7,-44.6 v -3 c 12.7,-2.2 22.9,10.2 35,11 v 2 c 11,4.3 22.2,8.3 33,13 3.9,1.7 7.1,2.5 11,2 0.3,1 0.7,2 1,3 6.5,2.2 13,5.2 20,5 v 2 c 5.7,2.5 11.8,4.2 18,4 v 2 c 7.9,2.3 15.7,5.3 24,6 -8.7,-31.4 -13.2,-63.7 -23.7,-94.6 -1.7,-7.1 -2.1,-14.3 -3.3,-21.4 -4.8,-7.6 -4.4,-16.9 -6.9,-25.3 -19.8,-59.8 -78.3,-127.2 -140.1,-144.7 v -2 c -38.1,-11.5 -78.4,-20.2 -118.5,-20.3 -18.1,-0.1 -35.1,6.1 -53,6.4 -26,0.5 -52.1,0.7 -76.4,-9.1 v -2 c -3.8,-3.4 -9.1,-4 -14,-5 v -2 c -11.9,-3.6 -20.3,-12.9 -29.9,-20.3 -6.9,-6.7 -24.7,-18.3 -25.1,-27.7 3.7,1.4 7.5,2.7 10,6 6.4,1.7 10.3,6.5 15,11 18.4,11.9 37.5,23.1 59.2,27.9 -0.1,0 -0.1,0.1 -0.2,0.1 12.1,4.7 12.5,3.1 30,3 l 6.6613,-0.1364 c -12.1954,-12.2619 -21.8569,-25.9331 -31.7584,-43.7088 -2.1,-3.1 -1.5029,-13.5547 -2.9029,-16.9547 7.3,14.6 15.4,26.6 24,32.8 4.3,9.8 16.4,14.1 23.9,21.4 4.2,3.3 8.4,6.9 14,7.2 18.1,0.4 35.9,-3.5 53.9,-4.1 6.7,-0.1 13.2,-0.8 19.2,-3.6 v -2 c 10.9,-2.8 20,-10.1 31.1,-12.2 6.5,-1.3 12.4,-5.3 18.9,-5.8 v -3 c 12.2,2 24.7,0.8 37,1 0.2,-5.4 5.7,-7.3 9,-11 15.6,-21.1 27.6,-45.8 28.1,-72.4 0.6,-14.6 -1.2,-29.6 1.5,-44 2.4,-7.4 6.5,-14 8.4,-21.6 h 2 c 1.5,-18.8 1.5,-17.2 12,-32 8.3,-0.3 14.2,2.1 16.2,10.3 1.8,5.7 3.9,11.8 2.8,17.7 6.5,1.8 11.2,7.1 17.2,10.1 3.4,2.1 7.9,2.3 10.8,4.9 36.2,6.2 16.6,1.8 39,-13.1 19.9,-7.2 23.3,20.4 16,33.1 -1,5.8 18.6,19.6 24,22 v 2 c 7,0.2 12.5,5.3 19,6 3.6,-9.4 13.4,-12 22.4,-11.5 16.3,2.9 6.3,25.1 5.3,35.5 0.8,18.4 17.3,38.1 35.7,41.2 8.7,3 16.8,-3.5 25.6,-2.2 5.4,4.8 6.1,20.4 2,26 -3.8,3.1 -7.8,5.4 -9.2,10.4 -11.4,37.7 -53.8,45.6 -79.8,69.6 h -2 c -9.7,15.5 -24.3,28.8 -30,47 -1.1,8.5 2.3,16.3 1.5,24.9 1.3,20.6 -18.9,38.3 -10.5,58.7 6.3,22.9 12.5,45.8 18.6,68.8 3.5,10.5 1.6,20.1 6.5,28.7 5.1,8.8 1.4,20.1 7,28.9 4.6,6.8 9,12 12,18 101.1,-6.2 189.6,-154.4 235,-236 h 2 c 19.8,-47.5 45.7,-93.3 68,-140 h 2 c 47.3,-95.5 137.7,-222.9 257,-216 22.8,2.4 56.1,18.2 73.6,26.3 69.4,38.8 103.7,118.6 98.5,196.3 z"
           id="path14-6-6-6"
           sodipodi:nodetypes="cccccccccccccccccccccccccccccccccccccccccccccccccccccccccccccccccccccccccccccccccccccccccccccccccccccccccccccccccccccccccccccccccccccccccccccccccccccccccccccccccccccccccccccccccccccccccccccccccccccccccccccccccccccccccccccccccccccccccccccccccccccccccccccccccccccccccccccccccccccccccccccccccccccccccccccccccccccccccccccccccccccccccccccccccccccccccccccccccccccccccc" />
        <path
           class="st4"
           d="m 1403.6,1577 c 2,2.6 3,6.8 2.6,13.4 0.6,-6.7 -0.4,-10.8 -2.6,-13.4 z m 2,79.1 c -0.5,-0.2 -1.1,-0.3 -1.7,-0.4 0.6,0.1 1.2,0.2 1.7,0.4 z m -16.1,-52.5 c 0.8,0.1 1.6,0.1 2.4,0 -0.8,0.1 -1.6,0.1 -2.4,0 z m 0,0 c -0.4,-0.1 -0.8,-0.1 -1.2,-0.3 0.3,0.2 0.7,0.3 1.2,0.3 z m -19.5,-30.1 c 4.9,1 10.6,0.3 16,-0.2 -5.5,0.4 -11.2,1.1 -16,0.2 z m -11.8,-70.7 c 2.8,-0.3 5.8,-0.4 8.5,-0.1 -2.7,-0.3 -5.7,-0.2 -8.5,0.1 z m -29.5,-51.1 c 0.1,-1.6 0,-3 -0.3,-4.2 0.2,1.2 0.2,2.5 0.3,4.2 z m -8.6,13.6 c 2.9,-1.1 5.3,-2.7 6.9,-5.2 -1.6,2.4 -4,4 -6.9,5.2 z m 2.4,-24.1 c -1.2,-0.8 -2.3,-1.4 -3.5,-1.9 2.3,1.1 4.4,2.5 6.6,3.9 -0.8,-0.7 -1.8,-1.4 -3.1,-2 z m -1.4,50.6 c 0.9,2.4 2.6,4.1 4.5,5.6 -2,-1.9 -3.5,-4 -4.8,-6.3 0.2,0.2 0.3,0.5 0.3,0.7 z m -8,-16.5 c 1.1,2.7 2.5,5.4 3.9,8 -1.2,-2.7 -2.8,-5.2 -3.9,-8 z m -2.3,-37.4 c 1.4,0 2.8,0.1 4.2,0.3 -1.3,-0.2 -2.7,-0.3 -4.2,-0.3 z m -4.5,0.3 c 1.4,-0.2 2.8,-0.3 4.3,-0.3 -1.5,-0.1 -2.9,0 -4.3,0.3 z m -5.9,1.9 c -1.2,0.5 -2.5,0.9 -3.9,1.2 1.4,-0.2 2.7,-0.6 3.9,-1.2 z m -11.8,2.4 c 2.3,-0.3 4.6,-0.5 6.9,-0.9 -2.4,0.4 -5.2,0.7 -6.9,0.9 z m -4.9,1 c -2.2,0.6 -4.5,1.4 -7.9,2.6 2.8,-0.9 5.5,-1.7 7.9,-2.6 z m -30.4,242.4 c 3.5,-0.2 7.1,-0.2 10.7,-0.2 -3.6,-0.1 -7.2,0 -10.7,0.2 z m -4.1,-229.5 c -0.9,0.5 -1.8,1 -2.7,1.6 4.3,-2.6 9.3,-4.8 14.3,-6.7 -4.1,1.1 -8.2,2.4 -11.6,5.1 z m -11.8,9.2 c -1.5,1.5 -2.9,3.1 -4.4,4.7 1.5,-1.5 3,-3 4.4,-4.7 z m -8.8,8.4 c -2.6,1.8 -5.3,3.4 -8.2,4.8 3,-1.3 5.7,-3 8.2,-4.8 z m -14,8.1 c 0.6,-0.5 1.2,-0.9 1.8,-1.3 -0.7,0.3 -1.4,0.6 -1.8,1.3 z m -3.4,3.2 c 0.2,-0.2 0.4,-0.4 0.6,-0.7 -1.8,1.5 -3.8,2.9 -5.8,4.1 1.8,-1 3.5,-2.1 5.2,-3.4 z m -62.3,468.9 c -1.1,-2.9 -2.3,-5.9 -3.4,-8.9 1,3.1 2.1,6 3.4,8.9 z m -27.7,-90.7 c 3.5,17.2 9,34.2 14,51 -6.1,-20 -10.8,-38.1 -14,-51 z m 9,126.5 v -0.6 c -0.2,-0.1 -0.5,-0.2 -0.7,-0.2 0.2,0.2 0.5,0.5 0.7,0.8 z m -6.7,-210.9 c 2.5,-7.4 5.3,-14.8 7.1,-22.3 -1.9,7.5 -4.8,14.9 -7.1,22.3 z m -4,14.8 c -1.1,6.5 -1.3,13.2 -1.4,19.9 0.4,-6.7 0.9,-13.3 1.4,-19.9 z m -28.3,145.2 v -0.8 c -0.3,-0.1 -0.5,-0.2 -0.8,-0.3 0.3,0.4 0.5,0.8 0.8,1.1 z m -83,-459.1 v -0.6 c -0.3,-0.1 -0.6,-0.2 -0.9,-0.3 0.3,0.3 0.6,0.6 0.9,0.9 z m -21,-101.9 c -0.6,1.9 -1.1,3.8 -1.4,5.7 0.4,-1.9 0.9,-3.8 1.4,-5.7 z"
           id="path12-5-0-7" />
        <path
           id="path16-2-2-4"
           class="st4"
           d="m 987.20714,1373.3035 c -4.4,6.7 -3.30908,13.6015 -4.00908,21.0015 -5.3,10.2 -4.39366,20.8956 -3.99366,31.9956 l -4.00908,1.0023 v -2.0045 c -0.7,-0.3 -1.28912,-0.7023 -1.98912,-1.0023 -0.4,0.7 -0.60182,1.3971 -0.80182,2.0971 1.8,3.1 4.48914,5.4057 8.78914,5.9057 0.3,-7.1 0.70227,-14.1015 1.00227,-21.0015 6.4,7.8 6.90501,18.502 9.00501,28.002 2.4,4.6 2.79366,10.2032 3.99366,15.0032 0.7,0.3 1.30454,0.7023 2.00454,1.0023 3.5,7.7 52.648,40.1821 59.548,45.2821 30.6471,36.7391 40.656,19.7272 58.5939,99.8347 19.9699,72.1407 11.7262,105.0505 13.9909,110.6205 1.9,5 -5.0601,9.1314 -2.3601,16.3314 2.9,6 -8.2776,35.5656 -15.5782,65.3742 -7.4125,51.0526 6.7227,87.8957 6.7227,87.8957 -0.097,5.3413 22.9825,69.4265 35.0694,103.8556 19.8413,34.2039 2.9517,-22.1914 -3.8511,-35.4575 -10.4,-32.7 -34.3309,-100.4469 -31.2309,-135.2469 -2.4,-25.5 14.0935,-47.4875 14.0935,-72.4875 14.1,1.7 26.9983,-3.0028 39.9983,-8.0028 5.1,-7.4 9.7045,-15.1033 15.6045,-21.8033 1.3,-1.4 2.5012,-2.7011 3.9012,-3.9011 0.8,-0.7 1.6054,-1.4046 2.4054,-2.0046 7.5,-5.7 16.3876,-8.9894 25.0876,-12.2894 v -2.0045 c 9,0.2 16.2035,-3.503 25.3035,-4.703 13.1,-1.7 26.5978,-0.8921 39.7978,0.1079 34.3,2.8 73.7969,21.5923 103.8969,-3.4077 6,-0.2 12.1073,-1.3969 16.8073,-5.3969 6.4,-3.2 10.7025,-14.3992 4.5025,-19.9992 -3.4,-2.6 -8.2048,-2.8984 -12.3048,-2.6984 v -2.0045 c -2.3,-0.3 -4.7005,-0.6023 -7.0005,-1.0023 -12.4,-14.4 -6.0045,-32.7035 -2.0045,-49.0035 7.5,1.9 14.1055,-5.2964 16.0055,-11.9964 0.7,-0.3 1.3045,-0.7023 2.0045,-1.0023 3.1,-25.6 -22.0069,-14.1924 -37.0069,-16.9924 -1.5,-2.9 -2.5936,-6.005 -3.9936,-9.005 -0.7,-0.3 -1.3046,-0.7023 -2.0046,-1.0023 -3.9,-9.2 -3.5936,-19.1888 -3.9936,-28.9888 10.5,-1.8 27.0986,-22.607 12.9986,-30.207 -7.8,-3 -17.295,-1.4972 -24.995,1.2028 v 2.0045 c -5.4,-1.2 -10.7055,-2.4091 -16.0055,-4.0091 v -2.0045 c -7.8,-3.7 -10.9014,-10.4872 -14.2014,-18.0872 -2.6,-5 -5.5978,-10.213 -5.7978,-15.913 21.2,-0.8 24.8932,-24.7968 3.7932,-29.0968 -6.6,-1.3 -12.5034,1.2073 -18.5034,3.2073 -7.3,1.1 -13.6855,1.9955 -20.7855,4.7955 -13.2,5 -28.8101,8.5058 -38.4101,19.5058 -5.5,6.9 -13.0014,11.5957 -21.0014,15.0957 -6.9,6.6 -15.2008,11.1024 -24.1008,14.6024 v 1.9891 c -7.5,0.9 -14.4882,4.6137 -21.9882,6.0137 v 1.9891 c -16.4,1.4 -33.5056,7.4068 -50.0056,3.0068 v -2.0045 c -11.2,-14 -29.9965,-12.2988 -45.9965,-12.9988 -20.3,-20.3 -49.2111,-31.1016 -66.0111,-55.0016 h -1.9891 c 0.2,-3.7 -2.6091,-6.6919 -4.0091,-9.9919 h -1.9891 c -4.49988,-13 -10.59866,-25.9984 -12.99866,-39.9984 h -2.00454 c 0.3,-4.6 1.59888,-8.8992 2.89888,-13.1992 z"
           sodipodi:nodetypes="cccccccccccccccccccccccccccccccccccccccccccccccccccccccccccccccccccccc" />
        <path
           class="st5"
           d="m 985.6,1385 c -0.2,1.1 -0.3,2.2 -0.4,3.3 0.1,-1.1 0.2,-2.2 0.4,-3.3 z"
           id="path20-1-1-0" />
        <path
           class="st5"
           d="m 988.2,1375.3 c -0.3,0.9 -0.7,1.8 -1,2.8 0.3,-1 0.6,-2 0.9,-2.9 0,0 0.1,0.1 0.1,0.1 z"
           id="path22-2-8-3" />
        <path
           class="st5"
           d="m 995.2,1454.3 c 0.7,0.3 1.3,0.7 2,1 -1.5,-0.5 -1.5,-0.5 -3,-1 -3.4,-13.7 -5.7,-27.9 -11,-41 -0.7,6.3 0.1,13 -2,19 0.3,-7.1 0.7,-14.1 1,-21 6.4,7.8 6.9,18.5 9,28 2.4,4.7 2.8,10.2 4,15 z"
           id="path24-7-79-0" />
        <path
           class="st5"
           d="m 1121.2,1863.5 c -3.6,-16.1 -3.9,-33 -3.1,-49.7 -0.4,16.7 -0.5,33.4 3.1,49.7 z"
           id="path56-3-9-5" />
        <path
           class="st5"
           d="m 1122.1,1783.7 c -1.2,3.3 -2,6.7 -2.6,10.2 0.7,-5 2.4,-9.8 3.9,-14.7 -0.5,1.5 -0.9,3 -1.3,4.5 z"
           id="path58-7-3-4" />
        <path
           class="st5"
           d="m 1132.2,1743.2 c 0.1,4.3 -0.6,8.5 -1.5,12.7 1,-4.2 1.5,-8.4 1.5,-12.7 z"
           id="path62-9-9-1" />
        <path
           class="st5"
           d="m 1159.2,1977.6 c -3.6,-7.2 -7.1,-15.2 -10.3,-23.4 3.9,7.5 7.6,15.3 10.3,23.4 z"
           id="path66-2-7-8" />
        <path
           class="st5"
           d="m 1187.8,1711.6 c 0.6,-0.7 1.3,-1.4 1.9,-2 -0.6,0.6 -1.2,1.3 -1.9,2 z"
           id="path72-7-5-6" />
        <path
           class="st5"
           d="m 1189.7,1709.5 c 0.6,-0.7 1.3,-1.3 2,-1.9 -0.7,0.7 -1.3,1.3 -2,1.9 z"
           id="path74-3-0-8" />
        <path
           class="st5"
           d="m 1191.7,1707.7 c 0.8,-0.7 1.6,-1.4 2.4,-2 -0.8,0.6 -1.6,1.3 -2.4,2 z"
           id="path76-6-3-0" />
        <path
           class="st5"
           d="m 1195.7,1493.8 c 2.9,-1.3 5.8,-2.6 8.6,-4.1 -2.7,1.5 -5.6,2.8 -8.6,4.1 z"
           id="path78-1-6-2" />
        <path
           class="st5"
           d="m 1214.6,1482.1 c -0.9,0.9 -1.8,1.8 -2.8,2.6 0.8,-1 1.8,-1.9 2.8,-2.6 z"
           id="path80-2-1-1" />
        <path
           class="st5"
           d="m 1219.9,1479 c 0.2,-0.1 0.4,-0.2 0.6,-0.2 -1.3,0.7 -2.7,1.4 -4.1,2 1.1,-0.7 2.2,-1.3 3.5,-1.8 z"
           id="path82-9-0-0" />
        <path
           class="st5"
           d="m 1230.2,1690.3 c 3.6,-1.6 7.8,-2.7 12.3,-3.4 -4.5,0.8 -8.6,1.9 -12.3,3.4 z"
           id="path84-3-63-5" />
        <path
           class="st5"
           d="m 1232.3,1471.1 c -1.2,1 -2.4,2 -3.6,2.9 1.5,-1.1 2.9,-2.3 4.3,-3.6 -0.3,0.2 -0.5,0.5 -0.7,0.7 z"
           id="path86-1-2-1" />
        <path
           class="st5"
           d="m 1239.2,1463.3 c 2.1,-2 4.6,-3.8 7.3,-5.4 -3.4,2.2 -6.4,4.9 -9.2,7.7 0.7,-0.7 1.3,-1.5 1.9,-2.3 z"
           id="path88-9-0-1" />
        <path
           class="st5"
           d="m 1275.6,1446.2 c -4.2,1.5 -10,3.9 -14.7,5.1 5,-2 10.1,-3.6 14.7,-5.1 z"
           id="path90-4-6-0" />
        <path
           class="st5"
           d="m 1273.3,1686 c 1.9,0.1 3.8,0.2 5.6,0.4 -1.8,-0.2 -3.7,-0.3 -5.6,-0.4 z"
           id="path92-7-1-8" />
        <path
           class="st5"
           d="m 1284.2,1443.3 c 1.4,-0.4 2.9,-0.6 4.3,-0.8 -1.9,0.3 -3.4,0.6 -4.9,1 0.3,0 0.4,-0.1 0.6,-0.2 z"
           id="path94-8-5-5" />
        <path
           class="st5"
           d="m 1301.3,1439.7 c 1.6,-0.8 3.3,-1.2 4.9,-1.5 -2,0.4 -3.9,1.2 -5.8,1.9 0.3,-0.1 0.6,-0.2 0.9,-0.4 z"
           id="path96-4-5-0" />
        <path
           class="st5"
           d="m 1312.8,1474.5 c -0.9,-2.3 -1.6,-4.8 -1.6,-7.2 0.1,2.5 0.7,4.9 1.6,7.2 z"
           id="path98-5-4-6" />
        <path
           class="st5"
           d="m 1317,1466.2 c -1.9,0.5 -3.8,0.8 -5.8,1.1 2,-0.2 4,-0.6 5.8,-1.1 z"
           id="path100-0-7-4" />
        <path
           class="st5"
           d="m 1318.5,1439.1 c -1.1,-0.4 -2.3,-0.7 -3.5,-0.9 1.3,0.1 2.5,0.5 3.5,0.9 z"
           id="path102-3-6-6" />
        <path
           class="st5"
           d="m 1317,1483.3 c 1.4,2.6 2.8,5.2 3.8,7.8 -1.3,-2.4 -2.5,-5 -3.8,-7.8 z"
           id="path104-6-5-2" />
        <path
           class="st5"
           d="m 1325.6,1497.4 c 1.8,1.3 3.8,2.5 5.6,3.9 -2.2,-1.1 -4,-2.4 -5.6,-3.9 z"
           id="path106-1-6-5" />
        <path
           class="st5"
           d="m 1325.7,1443.3 c 1.6,0.7 2.4,2.8 2.7,4.1 -0.5,-1.7 -1.4,-3 -2.7,-4.1 z"
           id="path108-0-9-8" />
        <path
           class="st5"
           d="m 1328.4,1456.3 c 0.3,-1.3 0.4,-2.8 0.3,-4.5 0.1,1.6 0,3.1 -0.3,4.5 z"
           id="path110-6-3-6" />
        <path
           class="st5"
           d="m 1348.6,1504.8 c 0.5,-0.2 1.1,-0.3 1.6,-0.5 -0.5,0.2 -1.1,0.3 -1.6,0.5 z"
           id="path112-3-7-2" />
        <path
           class="st5"
           d="m 1371.1,1503.6 c 1.6,0.5 2.9,1.3 3.8,2.3 -0.9,-1 -2.2,-1.7 -3.8,-2.3 z"
           id="path114-2-4-8" />
        <path
           class="st5"
           d="m 1403.4,1576.7 c -3.7,-4.2 -10.3,-4 -17.4,-3.4 7.2,-0.7 13.8,-1 17.4,3.4 z"
           id="path116-0-5-4" />
        <path
           class="st5"
           d="m 1393.9,1682.8 c 1.8,-0.3 3.4,-0.7 5.1,-1.3 -1.6,0.6 -3.3,1 -5.1,1.3 z"
           id="path118-6-2-7" />
        <path
           class="st5"
           d="m 1399.3,1599.7 c -0.8,0.8 -1.6,1.5 -2.5,2 0.8,-0.5 1.7,-1.2 2.5,-2 z"
           id="path120-1-5-2" />
        <path
           class="st5"
           d="m 1399,1681.4 c 0.6,-0.2 1.3,-0.5 1.9,-0.9 -0.6,0.4 -1.2,0.7 -1.9,0.9 z"
           id="path122-5-4-4" />
        <path
           class="st4"
           d="m 671.2,1735.3 h -3 c 0,1.5 -0.4,2.6 -1,4 -6.6,3.3 -15.3,3.2 -22,0 -5.3,-0.8 -10.8,-0.4 -16,-2 -28.8,11.4 -25.4,49.9 -23,76 4.1,9.3 15.3,14.7 15,26 h 2 c 5.6,15.1 -6,22.1 -18.8,14.9 -6,-3.5 -12.2,-6.4 -18.2,-9.9 -4.1,-4.7 -8.8,-7.3 -15,-6 -18.3,8.7 -31.9,25.2 -41,43 -1.6,9.4 2.7,18.5 8,26 -0.3,8 2.8,18 -4,24 -14.9,3 -26.1,-8.2 -32.8,-20.4 -8.9,-25.4 -33.4,-41.6 -47.2,-64.6 v -3 h -2 c -2.1,-2.8 -2.1,-2.8 -4,-6 v -3 h -2 c -0.3,-1.7 -0.7,-3.3 -1,-5 h -2 c -8,-12.4 -15.6,-24.9 -24,-37 v -2 h -2 c -0.3,-1.7 -0.7,-3.3 -1,-5 h -2 c -43.9,-66 -32.2,-23.9 -65,-57 v -2 c -4.2,-1.5 -7.7,-4.3 -8,-9 -34.9,5.9 -61.2,-4.7 -89,-25 v -2 c -4.1,-0.2 -6.7,-1.9 -10,-4 -4.9,-2 -10,-3.3 -14,-7 -7.8,-4.2 -23.5,-7.9 -22,-19 5.3,0.3 9.7,0.5 14,4 9.4,4.4 19.6,6.8 29,11 0.5,1.5 0.5,1.5 1,3 2.9,1.4 6.1,1.6 9,3 0.5,1.5 0.5,1.5 1,3 4.5,-0.3 7.1,3.1 10,6 10,5.1 20.1,12.1 31.4,13.4 29.5,0.7 58.4,-13.9 70.6,-41.4 h 2 c 0.5,-2.4 0.7,-4.9 2,-7 h 2 c 0.5,-4.2 0,-8.7 3,-12 h 2 c 23.7,-57.2 9.4,-118.5 6,-178 h -2 c -2.6,-18.1 -8.1,-35.9 -10,-54 h -2 c -4.4,-18.6 -11.7,-32.7 -18.2,-50.6 -3.5,-8 -5.1,-17.7 -10.8,-24.4 -0.6,-2.6 -0.7,-5.3 -1,-8 1.7,-0.5 3.3,-0.3 5,0 23.2,27.3 40.7,60.4 46,96 0.3,0.3 0.7,0.7 1,1 2.3,14.9 4.2,29.9 5,45 h 2 c 1.9,10.2 1.4,20.7 2,31 9,1.9 25.9,2.1 28,13 h 2 v 2 c 32,16.1 17.8,30.9 29,35 43.9,14.5 98.5,-9.9 140,7 v 2 c 18.2,2.5 25.8,24.7 43,28 0.3,0.7 0.7,1.3 1,2 6.8,2.5 13.1,5.6 17,12 2.1,1.5 4.2,3.2 4.4,6 0.3,5.7 -0.8,13.6 -6.6,16.1 -8.2,2.5 -17.2,1.2 -25.8,1.9 -7.7,17.2 -4,37.3 -1,55 h 2 c 1.3,3.6 4.1,7 4,11 h 2 c 8.5,15.7 4.9,11 18,23 v 2 h 2 c 0.3,0.7 0.7,1.3 1,2 1.3,0.6 2.7,1.3 4,2 1.9,4.5 0.8,9.4 1,14 z"
           id="path124-5-7-0" />
        <path
           class="st6"
           d="m 793.2,1052.4 c 23,-2.5 17.7,2.4 36,9 0,0.7 0,1.3 0,2 3.3,1.1 6.6,2.4 9,5 0,1 0,2 0,3 -4.7,1.3 -8.1,-2.1 -12,-4 -10.2,-1.5 -18.3,-9.2 -29,-7 -7.6,18.4 -2.6,38.6 -4,58 -0.5,0.5 -0.5,0.5 -1,1 -1.7,0 -3.3,0 -5,0 -2.4,-3.2 -4.9,-8.1 -4.8,-11.8 0.3,-17 -5.1,-44.4 10.8,-55.2 z"
           id="path126-4-4-6" />
      </g>
      <path
         class="st3"
         d="m 96.796881,113.23263 c 0.124,-0.0101 0.244649,-0.0101 0.36865,0 -0.01006,0.0235 -0.02346,0.0436 -0.03351,0.067 -0.485947,0.14411 -0.928326,0.43903 -1.273517,0.80433 -0.217838,0.28151 -0.113946,0.71383 0.03351,1.0054 0.408866,0.67027 0.556326,0.90487 1.206489,1.34054 0.02346,0.0704 0.04022,0.1307 0.06703,0.20108 0.04357,0.0134 0.09049,0.0235 0.134053,0.0335 0.02346,0.057 0.04357,0.11059 0.06703,0.16756 0.04357,0.0168 0.08713,0.0268 0.134055,0.0335 0.194378,0.19438 0.291567,0.10724 0.449082,0.41556 0.177621,0.20108 0.191028,0.44238 0.187676,0.70044 0.01341,0.2681 0.05027,0.496 -0.130703,0.72724 -0.02346,0 -0.04357,0 -0.06703,0 -0.144108,0.31167 -0.29827,0.77081 -0.697083,0.79427 -0.237945,0.0134 -0.408865,-0.19103 -0.589838,-0.31503 -0.284866,-0.14075 -0.325082,-0.45913 -0.288217,-0.74735 0.05362,-0.057 0.110594,-0.11395 0.167568,-0.16757 0.01341,-0.0704 0.01676,-0.1307 0,-0.20108 -0.02346,-0.0235 -0.04357,-0.0436 -0.06703,-0.067 -0.251352,-0.0302 -0.519461,0.003 -0.770813,-0.0335 -0.258054,-0.0938 -0.405514,-0.41556 -0.201081,-0.63675 0.02346,0 0.04357,0 0.06703,0 0,-0.0235 0,-0.0436 0,-0.067 0.06368,-0.0503 0.113945,-0.10054 0.167568,-0.16757 -0.01006,-0.12065 -0.01006,-0.12065 -0.03351,-0.23459 -0.375352,0.0201 -0.710487,-0.10725 -1.072435,-0.16757 0.0067,-0.16422 0.150812,-0.25805 0.254704,-0.3653 0.09049,-0.11059 0.244649,-0.11729 0.348541,-0.20443 0,-0.067 0,-0.13405 0,-0.20108 -0.304973,-0.0905 -0.620001,-0.1307 -0.938381,-0.13406 0.05362,-0.23124 0.207784,-0.40886 0.335136,-0.60324 0.02346,0 0.04357,0 0.06703,0 0.0034,-0.0771 -0.02681,-0.1374 -0.06703,-0.20108 -0.351893,-0.14411 -0.76411,-0.0905 -1.105948,-0.26811 0.134054,-0.36529 1.095895,-0.74735 1.464544,-0.8747 0.576434,-0.28151 1.189732,-0.4893 1.816437,-0.6334 z"
         id="path10-5-3-9"
         style="fill:#ce9378;fill-opacity:1;stroke-width:0.0335135" />
      <g
         id="g182-7-4-2"
         transform="matrix(0.0335136,0,0,0.0335135,72.331956,85.449938)"
         style="fill:#32242b;fill-opacity:1">
        <path
           class="st7"
           d="m 1201,1068 c 4,0.3 5.6,2.2 8.6,5.1 7.3,6.7 15.2,13.1 24.4,16.9 0,0.7 0,1.3 0,2 12.2,5.7 22.7,14.3 36,18 0.3,1 0.7,2 1,3 7.6,2.3 15.3,5.6 23,8 0.3,0.7 0.7,1.3 1,2 29.9,10.9 59.4,22.6 88,36 0,0.7 0,1.3 0,2 2.9,1 6,1.4 8,4 16.4,8.6 47.3,35 36,56 -0.7,0 -1.3,0 -2,0 -29.4,38.9 -164.1,75.7 -211.6,60.5 -22.4,-2.7 -43.9,-9.3 -66.4,-12.5 0,-0.7 0,-1.3 0,-2 -35.6,-4.8 -68.5,-18.8 -102,-31 0,-0.7 0,-1.3 0,-2 -4.2,-0.1 -7.9,-1 -11,-4 -9.8,-1.9 -17.3,-8.5 -27,-11 0,-0.7 0,-1.3 0,-2 -2.6,-0.7 -5.3,-1.3 -8,-2 0,-0.7 0,-1.3 0,-2 -8.3,-0.8 -15,-8.6 -23,-10 0,-0.7 0,-1.3 0,-2 -3.7,-1.3 -7.5,-2.2 -11,-4 0,-0.7 0,-1.3 0,-2 -14.6,-5.6 -27.7,-14 -41,-22 -0.5,-1 -0.5,-1 -1,-2 -6.4,-2.3 -12.1,-6.3 -17,-11 17.7,0.5 48.9,7.1 63,-5 1.3,0 2.6,0 4,0 0,-0.7 0,-1.3 0,-2 19.6,-10.7 34,-29.2 53.3,-40.2 29.9,-13 63.4,-5 95,-6.5 20.4,2.1 39,-7.9 56.7,-15.3 0,-0.7 0,-1.3 0,-2 8.1,-1.2 14.3,-13.6 22,-18 0.3,-1 0.7,-2 1,-3 z"
           id="path130-6-3-9"
           style="fill:#32242b;fill-opacity:1" />
        <path
           class="st7"
           d="m 538.9,1564.8 c 24.8,-0.4 36.4,2.8 58.1,9.2 0,0.7 0,1.3 0,2 17.1,2.2 21.1,23.8 17,38 -9.8,7.2 -12.8,8.9 -25.5,8.1 -18.5,-0.2 -37.9,-2.1 -55.5,4.9 -1,3.6 -1.3,7.2 -2,11 0.7,0 1.3,0 2,0 4.1,11.1 17.3,15 26,22 12.1,8.9 24.5,16.5 38,23 0,0.7 0,1.3 0,2 11.3,4.1 30.5,16.1 19,29 -14.9,9.5 -34.4,6 -51,4 0,-0.7 0,-1.3 0,-2 -16.2,0.2 -38.9,-12.3 -53,-1 -4.1,18.5 13,30.5 24.2,42.4 7.8,7.7 15.4,15.5 23.8,22.6 5.7,5.6 13.5,10 16,18 4.6,31.4 -28.7,23.2 -46,13 -11.3,-8.9 -21.4,-19.3 -31,-30 -4.2,-3.7 -9.7,-1.7 -15,-2 -0.9,1.7 -1.5,3.7 -3,5 0.6,9.7 1.5,19.4 3,29 4.3,8.2 6.4,16.7 9.8,25.3 5.4,11.2 14.8,30.2 11.2,42.7 -10.5,1.9 -18.8,-8.1 -22,-17 -2.7,-2.7 -5.8,-4.9 -6,-9 -1,-0.3 -2,-0.7 -3,-1 -1.2,-3.6 -1.2,-3.6 -2,-7 -1,0 -2,0 -3,0 -9.3,-13 -18.5,-26.6 -27,-40 -3.6,-3.9 -8.5,-7.5 -8,-13 -1,-0.3 -2,-0.7 -3,-1 0,-1 0,-2 0,-3 -3.6,-1.1 -6.7,-4 -6,-8 -0.7,0 -1.3,0 -2,0 -3.9,-6.5 -9.6,-10.9 -14,-17 -1.6,-3.1 -2.1,-6.8 -5,-9 0,-1 0,-2 0,-3 -0.7,0 -1.3,0 -2,0 0,-0.7 0,-1.3 0,-2 -16.6,-8.4 -9.6,-14.4 1,-24 9.3,-15.3 16.8,-32.5 21,-50 0.7,0 1.3,0 2,0 6,-37.7 23.7,-73.2 27,-111 10.7,-1.5 20.5,2.1 31,3 18.6,0.6 36.4,-3 54.9,-4.2 z"
           id="path132-5-0-9"
           style="fill:#32242b;fill-opacity:1" />
        <path
           class="st7"
           d="m 668,2170 c 18.8,-7.2 1.8,65.7 15.2,79.8 7,9.4 15,18.6 27.8,17.2 0,-0.7 0,-1.3 0,-2 6.2,-4.6 11.6,-10.5 14,-18 6.2,-8.6 11.2,-17.7 16,-27 0.7,0 1.3,0 2,0 0.1,-4.9 2.5,-7 5.9,-10.6 5.4,-5.8 10,-13.5 19.1,-12.4 3.3,22.4 -18.1,37.5 -19,59 -1,0.3 -2,0.7 -3,1 -1.8,31.4 8.2,51.9 43,42 0,-0.7 0,-1.3 0,-2 16.9,-9.5 29.4,-31.2 51,-28 5.3,38.9 -41.9,67 -23,106 13.5,8.4 16.4,2.3 29,0 0,-0.7 0,-1.3 0,-2 10.1,-2.2 30.6,-4.8 31,10 -11.2,12.1 -20.9,26.1 -35,35 -0.7,0 -1.3,0 -2,0 -0.3,1 -0.7,2 -1,3 -2,0.7 -4,1.3 -6,2 -0.3,1 -0.7,2 -1,3 -11.2,2 -26.2,10.3 -35,12 -17.9,6.2 -48,6.9 -45,33 -0.7,0 -1.3,0 -2,0 -5.8,-13.4 -5.8,-13.4 -8.1,-19.2 -1.7,-5.8 -6.4,-10.8 -6.9,-16.8 -0.7,0 -1.3,0 -2,0 -27.6,-54.2 -60.1,-110.9 -110.9,-146.7 -3.9,-3.5 -11.1,-5.2 -11.1,-11.3 16.9,-11.2 19.1,-32.9 24.8,-50.9 5.2,-18.8 14,-48.4 32.2,-56.1 z"
           id="path134-6-7-0"
           style="fill:#32242b;fill-opacity:1" />
        <path
           class="st7"
           d="m 1273,1458 c 4.8,-0.3 9,-0.1 14,0 -1.3,11.1 -9.6,19.3 -17,27 -6.2,11.6 -12.8,24.8 -4,37 22.3,8.3 47.6,-7.7 69,4 -0.9,9.2 -18.8,11.6 -25.4,17.3 -7.8,3.3 -11.9,10.8 -18.6,15.7 -4.6,8.9 -4.6,28 8,30 0,0.7 0,1.3 0,2 12.5,4.5 25.9,3.5 39,3 10.3,-1.4 20.9,-4 31,-1 -0.3,1.5 -1.1,2.8 -2,4 -3.6,1.2 -3.6,1.2 -7,2 0,0.7 0,1.3 0,2 -21.7,11.7 -34,15.7 -31,44 0.7,0 1.3,0 2,0 6.1,9.4 18.5,11.8 29,13 0,0.7 0,1.3 0,2 5,1.8 10,3.2 15,5 5.3,9 -4.1,14.8 -11.7,17.9 -22.9,7.7 -50.6,-2.8 -72.3,-10.9 -25.5,-2.4 -51.8,-1.9 -76.7,4.6 -9.3,1.3 -16.3,9.6 -25.3,10.4 -0.2,-11.9 -1.6,-23.3 -3,-35 -4.8,-10.8 -7.8,-21.3 -11.7,-32.4 -2.6,-8.2 -4.1,-16.9 -8.3,-24.6 -3.5,-4.4 -4.2,-9.6 -5,-15 -0.7,0 -1.3,0 -2,0 -9.9,-18.3 -18.4,-38.1 -30,-55 0,-0.7 0,-1.3 0,-2 9.3,-0.7 19.2,0.7 28,-3 3.5,-0.3 5.6,-0.1 9,0 0,-0.7 0,-1.3 0,-2 7,-1.6 14.1,-3 21,-5 4.6,-3.1 7.9,-3.9 13,-5 0.3,-1 0.7,-2 1,-3 1,0 2,0 3,0 0,-0.7 0,-1.3 0,-2 3.3,-1.3 6.3,-3.5 10,-3 0,-1 0,-2 0,-3 8.1,-1.9 12.5,-9.4 19.2,-13.9 10.3,-7.3 19.3,-16.9 31.8,-20.1 2.2,-2.5 4.6,-4.4 8,-5 z"
           id="path136-9-8-8"
           style="fill:#32242b;fill-opacity:1" />
        <path
           class="st7"
           d="m 1439,1864 c 1,0 2,0 3,0 5.6,8.3 7.9,18.3 10,28 0.7,0 1.3,0 2,0 3.9,10.5 4.3,25.2 14,31 1.1,2.6 1.1,2.6 2,5 20.9,2.8 19.2,-11.2 31,-23 3.7,-6.1 8.9,-13.7 17,-12 5.9,11.8 -1.2,25.5 -5,37 -0.2,8.7 0,17.3 0,26 0.7,0 1.3,0 2,0 2.1,2 4.2,4.5 6,7 0,0.7 0,1.3 0,2 9.1,3.4 15.9,0.2 24,-3 6.6,-7.5 15.3,-12.2 25,-14 0,-0.7 0,-1.3 0,-2 3.9,-2.1 8.7,-0.7 13,-1 1.8,14.2 -8.7,25.4 -13.2,38.1 -3.8,12.6 1,24.7 11.9,31.9 22,9.9 47.7,-12 67.3,3.1 -0.3,2.3 -0.7,4.6 -1,7 -0.7,0 -1.3,0 -2,0 -5.3,10.3 -18.3,25 -30,27 -0.3,1 -0.7,2 -1,3 -2,0.3 -4,0.7 -6,1 -0.3,1 -0.7,2 -1,3 -28.5,10.4 -56,32.7 -64,63 -1.6,-0.4 -2.6,-1.1 -4,-2 -1.8,-4.1 -3.4,-8.2 -6,-12 0,-0.7 0,-1.3 0,-2 -0.7,0 -1.3,0 -2,0 -0.3,-1.3 -0.7,-2.6 -1,-4 -0.7,0 -1.3,0 -2,0 -8.4,-15.9 -21.6,-28.8 -36,-39.4 -5.6,-5.3 -13,-12.3 -21,-13.6 0,-0.7 0,-1.3 0,-2 -14.5,-6 -29,-13.8 -44,-19 0,-0.7 0,-1.3 0,-2 -8.9,-0.5 -16.6,-4.7 -25,-7 0,-0.7 0,-1.3 0,-2 -4.6,-1 -9.2,-2 -14,-3 0,-0.7 0,-1.3 0,-2 54.4,-39.5 17.4,-106.9 50,-148.1 z"
           id="path138-3-6-1"
           style="fill:#32242b;fill-opacity:1" />
        <path
           class="st7"
           d="m 1140,1028 c 12.2,-0.2 25,-2.5 37,0 5.7,3.9 7.2,11 11.6,16.1 7.2,10.1 -2.2,22 -7.9,30.6 -6.7,7.6 -24.4,15.3 -31.6,18.3 -47,5.8 -92.4,-11.8 -135.7,15.9 -20.5,12.5 -37.2,32.5 -60.3,40.1 -31.6,4.3 -56.7,-9.7 -84,-23 -0.3,-0.7 -0.7,-1.3 -1,-2 -2.6,-1.1 -5.5,-1.5 -8,-3 -0.6,-2.1 -0.6,-2.1 -1,-4 16.1,-8.2 31.7,-19.1 49,-24 0,-0.7 0,-1.3 0,-2 72.5,-36.2 151.2,-57.5 231.9,-63 z"
           id="path140-7-8-3"
           style="fill:#32242b;fill-opacity:1" />
        <path
           class="st8"
           d="m 854,1145 c 18.1,12 35.3,26.6 54,38 l 2.45441,1.5909 c 3,0.6 2.01158,1.5068 5.01158,2.3068 l 3.57936,1.7955 L 921,1190 l 3.17029,2.5113 c 7.8,1.6 10.22971,7.2887 17.82971,9.4887 l 2.35215,2.5113 c 3,1 3.54785,1.4887 6.64785,2.4887 v 2 c 4.5,1.3 8.7,3.1 13,5 l 4.49976,3.7385 C 980.09749,1221.2839 984.2,1226.6 994.8,1231 c 20.2,7.7 38.5,19.6 59.2,26 v 2 c 14.2,3.1 26.2,11.9 41,13 8.6,6.7 21.3,6.5 31.6,9.9 12.1,3.1 24.3,6.1 36.4,9.1 -0.3,0.7 -0.7,1.3 -1,2 -43.3,12.3 -90.5,15 -133,-1 v -2 c -21.6,-3.5 -40.4,-17 -61,-24 -0.3,-0.7 -0.7,-1.3 -1,-2 -2.6,-1.3 -5.4,-1.8 -8,-3 -0.3,-0.7 -0.7,-1.3 -1,-2 -3,-1.4 -6.1,-2.5 -9,-4 v -2 c -20.7,-6.9 -77.3,-64.9 -83,-86 h -2 c -3,-7.3 -9.6,-14 -10,-22 z"
           id="path142-4-8-1"
           style="fill:#32242b;fill-opacity:1"
           sodipodi:nodetypes="ccccccccccccccccccccccccccccccc" />
        <path
           class="st7"
           d="m 564,2267 c 59.6,37.8 117.7,92.8 147,156 0.7,0 1.3,0 2,0 3.5,4.5 4.3,9 6,14 0.7,0 1.3,0 2,0 6.5,19 20.1,35.9 23,56 0.7,0 1.3,0 2,0 5.4,11 6.2,23 6,35 -8.1,0.3 -14.8,-2.8 -18.7,-10 C 686,2462.2 636,2403 611,2334 c -0.7,0 -1.3,0 -2,0 -10.1,-24.5 -26,-46.6 -45,-65 0,-0.7 0,-1.3 0,-2 z"
           id="path144-5-4-1"
           style="fill:#32242b;fill-opacity:1" />
        <path
           class="st9"
           d="m 1361.2,2030.7 c 21.6,-1.2 42.7,2.1 62.8,10.3 0,0.7 0,1.3 0,2 17.6,3.4 33.5,12.4 49,21 0,0.7 0,1.3 0,2 20.9,11 37.1,29.2 51,48 0,1.3 0,2.6 0,4 0.7,0 1.3,0 2,0 2.4,7.9 10.2,12.2 9.9,21.5 1.3,20.3 7.6,31.9 -3.9,41.5 -0.7,0 -1.3,0 -2,0 0,0.7 0,1.3 0,2 -1,0 -2,0 -3,0 -20.7,-43.5 -56.1,-79.9 -97,-105 -0.3,-0.7 -0.7,-1.3 -1,-2 -5.9,-1 -9,-6 -15,-7 -0.3,-0.7 -0.7,-1.3 -1,-2 -15.6,-6.9 -31.3,-14.3 -48,-18 0,-0.7 0,-1.3 0,-2 -17.2,-2.7 -34.6,-4.3 -52,-7 0,-1 0,-2 0,-3 14.4,-7.6 32.3,-5.6 48.2,-6.3 z"
           id="path146-2-3-0"
           style="fill:#32242b;fill-opacity:1" />
        <path
           class="st10"
           d="m 1109.8,1001.6 c 18.4,-0.6 37.1,-0.5 54.2,7.4 0,0.7 0,1.3 0,2 3.6,1.1 6.7,4 6,8 -66.9,-1.1 -132.6,14.3 -196,35 -0.5,1 -0.5,1 -1,2 -37.1,12.3 -72.7,29 -107,48 -0.7,0 -1.3,0 -2,0 1,-2.9 3.3,-6 6,-8 0.7,0 1.3,0 2,0 0,-0.7 0,-1.3 0,-2 33.1,-29 64.6,-57.3 103.8,-70.1 44.2,-9 88.7,-22.1 134,-22.3 z"
           id="path148-5-1-3"
           style="fill:#32242b;fill-opacity:1" />
        <path
           class="st10"
           d="m 1089,1512 c 12,1.9 28.3,22.4 36,32 0,0.7 0,1.3 0,2 0.7,0 1.3,0 2,0 22.4,44.5 63.7,106.6 43,157.6 -1.9,5.6 -5.6,10.1 -11.2,12.3 -8,6.6 -12.6,10.4 -23.8,10.1 -3.7,-35 6.4,-71 -5,-105 -1.3,-18.8 -10.3,-36.2 -13,-55 -2.9,-6.4 -7,-12.9 -7,-20 -0.7,0 -1.3,0 -2,0 -1.8,-4.3 -5.5,-8.1 -5,-13 -0.7,0 -1.3,0 -2,0 -1.8,-2.9 -5.2,-6.2 -5,-10 -1,-0.3 -2,-0.7 -3,-1 -1.8,-3 -4.1,-6.4 -4,-10 z"
           id="path150-4-49-4"
           style="fill:#32242b;fill-opacity:1" />
        <path
           class="st9"
           d="m 402,1502 c 8.5,3.8 24.8,1.7 27,13 0.7,0 1.3,0 2,0 0,0.7 0,1.3 0,2 11.4,5.8 25.9,16.6 23,31 -1.5,-0.5 -1.5,-0.5 -3,-1 -2.2,-6.8 -4.3,-13.4 -10,-18 0,-1 0,-2 0,-3 -4.3,-1.7 -7.8,-4.8 -11,-8 0,-0.7 0,-1.3 0,-2 -2.5,-0.2 -4.5,-0.5 -7,-1 -4,-5.1 -12.2,-5.7 -18,-4 3.1,9.5 15.8,3.9 25,24 0.7,0.3 1.3,0.7 2,1 0.6,3.1 0.6,3.1 1,6 0.7,0 1.3,0 2,0 11.4,31.2 -5.8,61.8 -14.4,91.3 -6.6,21 -27.3,91.5 -54.6,87.7 -2.5,-1.2 -3.4,-3.3 -3,-6 -2.6,-1.2 -5.5,-2.4 -7,-5 0.9,-7.3 10,-16.7 16,-21 1.4,-6.8 6,-10.8 10,-16 6,-16.7 14.1,-32.5 18,-50 0.7,0 1.3,0 2,0 0.7,-8.6 1.3,-17.2 2,-26 0.7,0 1.3,0 2,0 0.7,-7 1.4,-14 1,-21 -0.3,-0.3 -0.7,-0.7 -1,-1 -1,-15 -0.9,-30 -2,-45 -2.8,-9.3 -2.2,-18.5 -2,-28 z"
           id="path152-7-2-0"
           style="fill:#32242b;fill-opacity:1" />
        <path
           class="st7"
           d="m 686,2183 c 16.7,9.6 35,12.8 54,13 -12.2,18.3 -22.3,38.5 -37,55 -13.1,-2.5 -13.8,-19.8 -14.1,-30.8 0.3,-13.2 -3.8,-24.1 -2.9,-37.2 z"
           id="path154-4-0-3"
           style="fill:#32242b;fill-opacity:1" />
        <path
           class="st10"
           d="m 779,2218 c 1,0 2,0 3,0 6.6,12.4 16,25.5 29,32 0,0.7 0,1.3 0,2 2.9,0.9 6.1,1.4 8,4 -8.5,3.8 -15.6,7.1 -22,14 -0.7,0 -1.3,0 -2,0 -1.6,5.5 -7.2,7.8 -11.3,11.1 -5.6,4.8 -12.3,7.2 -19.7,5.9 -0.3,-0.3 -0.7,-0.7 -1,-1 -4.1,-31.1 11.5,-40.9 16,-68 z"
           id="path156-4-6-9"
           style="fill:#32242b;fill-opacity:1" />
        <path
           class="st11"
           d="m 550,1637 c 20.9,1.1 42.1,2.3 63,0 0.5,0.5 0.5,0.5 1,1 1.3,12.6 0.5,25.5 3,38 -8.5,1.7 -15.6,-10.6 -25,-13 -0.5,-1 -0.5,-1 -1,-2 -10,-4.5 -21,-7.2 -31,-12 0,-0.7 0,-1.3 0,-2 -4.2,-1 -7.4,-3.6 -10,-7 0,-1 0,-2 0,-3 z"
           id="path158-3-8-1"
           style="fill:#32242b;fill-opacity:1" />
        <path
           class="st12"
           d="m 598,1777 c 0.3,0 0.7,0 1,0 1.9,12.3 -0.3,24.8 2,37 4,9.3 15.3,14.7 15,26 0.7,0 1.3,0 2,0 4.4,11.5 -1.7,20.5 -14,17 -8,-3.3 -15.4,-7.9 -23,-12 -3.8,-4.3 -8.4,-6.9 -14,-7 0,-0.3 0,-0.7 0,-1 35.6,3.4 27.2,-37.1 31,-60 z"
           id="path160-0-9-9"
           style="fill:#32242b;fill-opacity:1" />
        <path
           class="st13"
           d="m 1339,1544 c 0.7,0 1.3,0 2,0 0.5,9.4 0.5,9.4 1,19 1,0.3 2,0.7 3,1 0.5,2.5 0.5,2.5 1,5 1.5,0 2.6,0.4 4,1 2,3 3.5,6.1 6,9 -11.3,1.9 -39.1,4.7 -49,0 -11.5,-9.9 3.6,-21 13.1,-24.8 5.8,-2 10.9,-6.7 16.9,-7.3 0,-0.7 0,-1.3 0,-2 0.7,-0.2 1.3,-0.6 2,-0.9 z"
           id="path162-7-2-6"
           style="fill:#32242b;fill-opacity:1" />
        <path
           class="st13"
           d="m 532,1725 c 26.6,-3 35.8,13.6 60,17 -2.5,9 -10.4,16.1 -12,26 -5.6,-3 -14.5,-5.6 -15,-13 -5.2,-0.6 -9.2,-3.1 -12.4,-7.2 -6.3,-7.2 -14.3,-12.6 -20.6,-19.8 0,-1 0,-2 0,-3 z"
           id="path164-8-6-9"
           style="fill:#32242b;fill-opacity:1" />
        <path
           class="st14"
           d="m 528,1872 c 0.7,0 1.3,0 2,0 -8.4,13.6 -5.9,23.3 3,36 -0.3,8 2.9,18 -4,24 -19.3,3.7 -33.6,-16 -37,-33 11.9,5.9 17.7,2.8 28,-3 0.3,-5.6 0.7,-11.2 1,-17 0.7,0 1.3,0 2,0 0,-0.7 0,-1.3 0,-2 2.4,-2.6 2.4,-2.6 5,-5 z"
           id="path166-6-6-3"
           style="fill:#32242b;fill-opacity:1" />
        <path
           class="st15"
           d="m 1535,1907 c 10.3,8.3 17.7,20.9 32,23 0,0.7 0,1.3 0,2 -7.9,5.7 -17.5,8.5 -25,15 -3.7,3.9 -8,8.8 -14,7 -10.1,-14.5 3.7,-32.3 7,-47 z"
           id="path168-8-4-3"
           style="fill:#32242b;fill-opacity:1" />
        <path
           class="st15"
           d="m 1601,1955 c 0.7,0.3 1.3,0.7 2,1 3.8,16.5 10.7,24.9 23,36 -4.6,1.4 -9.1,3.5 -14,3 0,0.7 0,1.3 0,2 -27.7,8.6 -33.6,0.4 -21,-24 0.7,0 1.3,0 2,0 2.2,-6.2 6.3,-11.5 8,-18 z"
           id="path170-8-9-8"
           style="fill:#32242b;fill-opacity:1" />
        <path
           class="st15"
           d="m 846,2313 c 0.7,0.3 1.3,0.7 2,1 2.1,11.3 6.4,22.1 10,33 0.7,0 1.3,0 2,0 1.6,3.6 3.9,6.4 8,7 -1,-4.3 -3,-8.7 -1,-13 2,4.9 6.3,9.4 6,15 1.3,0.3 2.6,0.7 4,1 -4.3,0 -8.6,0 -13,0 0,-0.7 0,-1.3 0,-2 -13,1.2 -22.6,2.5 -35,7 -2,-16.6 6.1,-23.5 11,-38 0.7,-0.3 1.3,-0.7 2,-1 1.7,-3.1 1.5,-7.3 4,-10 z"
           id="path172-4-5-0"
           style="fill:#32242b;fill-opacity:1" />
        <path
           class="st13"
           d="m 500,1804 c 5.2,2 9.9,7.1 14,11 0,0.7 0,1.3 0,2 6.1,-0.4 8.8,5.6 13,9 3.4,2.1 7.2,3.2 9,7 1,0.3 2,0.7 3,1 0,5 -4.9,6.9 -8,10 -4.7,4.6 -5.1,13.1 -12,15 -4.7,-7.5 -1.7,-19.1 -10,-24 -4,-10 -6.6,-20.5 -9,-31 z"
           id="path174-3-0-5"
           style="fill:#32242b;fill-opacity:1" />
        <path
           class="st16"
           d="m 630,1583 c 3.4,3.7 8.6,4.2 13,6 0.3,0.7 0.7,1.3 1,2 6.8,2.5 13.1,5.6 17,12 2,1.5 4.2,3.2 4.4,6 0.3,5.7 -0.8,13.6 -6.6,16.1 -8.2,2.5 -17.2,1.2 -25.8,1.9 -6.4,12.7 -3.5,27.2 -4,41 -0.7,0 -1.3,0 -2,0 0.4,-14.6 -2.1,-30.1 3,-44 9.3,-2.9 19.5,-0.5 29,-3 0.5,-1 0.5,-1 1,-2 0.7,0 1.3,0 2,0 -0.2,-3.7 0,-7.4 -1,-11 -1.2,-1.1 -2.5,-2.1 -4,-3 0,-0.7 0,-1.3 0,-2 -1.7,0 -3.3,0 -5,0 1.2,6.3 -0.4,16.5 -9,14 -0.3,-0.3 -0.7,-0.7 -1,-1 -2.3,0 -4.7,0 -7,0 -0.8,-8.5 1,-17.6 -2.5,-25.5 -1.8,-2.3 -2.2,-5.3 -2.5,-7.5 z"
           id="path176-1-4-6"
           style="fill:#32242b;fill-opacity:1" />
        <path
           class="st17"
           d="m 1290,1477 c 0.7,0 1.3,0 2,0 2.3,7.6 6.9,13.9 10,21 2,2 5,3.2 6,6 2,0.7 2,0.7 4,1 0.5,2 0.5,2 1,4 -11.4,1.5 -25.3,4.8 -35,4 -0.3,-0.3 -0.7,-0.7 -1,-1 -1.3,-8.7 0.1,-17.1 6,-24 0.7,0 1.3,0 2,0 0.1,-4.2 2.3,-7.8 5,-11 z"
           id="path178-4-87-6"
           style="fill:#32242b;fill-opacity:1" />
        <path
           class="st13"
           d="m 1464,1876 c 2.9,0.8 2.9,0.8 6,2 0.3,1 0.7,2 1,3 3.9,2 9.5,1.2 13,4 5,0.5 10,0.7 15,1 -2.1,5.2 -6.1,9.1 -10,13 -4,4.3 -4.7,11.1 -10,14 -7.9,-0.4 -9,-12.1 -10.5,-18.3 -0.7,-6.3 -5.1,-12.1 -4.5,-18.7 z"
           id="path180-9-1-4"
           style="fill:#32242b;fill-opacity:1" />
      </g>
      <path
         class="st18"
         d="m 97.889424,113.1589 c 0.284866,-0.003 0.566379,0.0402 0.817732,0.17427 0,0.0235 0,0.0436 0,0.067 0.194379,0.0838 0.355244,0.23795 0.482596,0.40552 0.07708,0.11059 0.07038,0.20108 0.154162,0.29827 0.251352,0.89481 0.02011,1.81643 -0.271461,2.67102 -0.09719,0.29492 -0.244649,0.93838 -0.315026,1.08249 -0.05362,0.18767 -0.191028,0.32173 -0.254704,0.5027 -0.03351,0.0235 -0.06703,0.0436 -0.100541,0.067 -0.107244,-0.0134 -0.107244,-0.0134 -0.201081,-0.0335 -0.217839,-0.77751 0.110594,-0.52951 -0.469191,-1.34054 -0.08378,-0.0402 -0.08378,-0.0402 -0.167567,-0.067 -0.06033,-0.0637 -0.113947,-0.1173 -0.201083,-0.13406 -0.03351,-0.057 -0.06703,-0.11059 -0.10054,-0.16756 -0.03351,-0.0101 -0.06703,-0.0235 -0.100541,-0.0335 -0.02346,-0.0335 -0.04357,-0.067 -0.06703,-0.10054 0,-0.0335 0,-0.067 0,-0.10054 -0.435676,-0.23794 -0.811028,-0.59319 -1.03892,-1.03892 -0.284867,-0.30497 -0.402164,-0.73394 -0.335136,-1.13946 0.44573,-0.69708 1.350597,-1.116 2.168329,-1.11264 z"
         id="path184-2-72-0"
         style="stroke-width:0.0335135" />
      <path
         class="st19"
         d="m 113.55368,125.39802 c 0.38541,-0.10054 0.47589,0.10055 0.77081,0.26811 0.32844,0.27481 0.40217,0.28487 0.36865,0.7373 -0.34183,0.12735 -0.70713,-0.0268 -1.03892,-0.10054 0,-0.0235 0,-0.0436 0,-0.067 -0.43232,-0.0302 -0.51946,-0.70378 -0.10054,-0.83784 z"
         id="path186-0-7-0"
         style="stroke-width:0.0335135" />
      <path
         class="st20"
         d="m 115.48071,124.27867 c 0.0402,0.003 0.0771,0.0101 0.1173,0.0134 0.33179,0.26811 0.66357,0.96184 0.36865,1.34054 -0.0771,0.0335 -0.15081,0.0436 -0.23459,0.0335 -0.24801,-0.17762 -0.58314,-0.59319 -0.65352,-0.88475 -0.0168,-0.28487 0.0838,-0.50606 0.40216,-0.50271 z"
         id="path188-6-2-4"
         style="stroke-width:0.0335135" />
      <path
         class="st21"
         d="m 98.633426,114.46927 c 0.07708,0 0.137406,0.007 0.207785,0.0369 0.157513,0.28821 0.331784,0.80432 -0.05027,0.98865 -0.264757,0.14075 -0.596542,0.38205 -0.888111,0.18432 -0.01006,-0.3854 0.03351,-0.76746 0.234596,-1.10594 0.140757,-0.1039 0.325082,-0.0905 0.496001,-0.1039 z"
         id="path190-8-2-6"
         style="fill:#fffeff;fill-opacity:1;stroke-width:0.0335135" />
    </g>
  </g>
</svg>
