<?xml version="1.0"?>
<svg xmlns="http://www.w3.org/2000/svg" viewBox="0 0 50 50" width="50px" height="50px">
    <path style="line-height:normal;text-indent:0;text-align:start;text-decoration-line:none;text-decoration-style:solid;text-decoration-color:#000;text-transform:none;block-progression:tb;isolation:auto;mix-blend-mode:normal" d="M 10 2 A 1.0001 1.0001 0 0 0 9 3 L 9 30 A 1.0001 1.0001 0 0 0 10 31 L 14 31 A 1.0001 1.0001 0 0 0 15 30 L 15 3 A 1.0001 1.0001 0 0 0 14 2 L 10 2 z M 11 4 L 13 4 L 13 29 L 11 29 L 11 4 z M 19 9 A 1.0001 1.0001 0 0 0 18 10 L 18 47 A 1.0001 1.0001 0 0 0 19 48 L 23 48 A 1.0001 1.0001 0 0 0 24 47 L 24 10 A 1.0001 1.0001 0 0 0 23 9 L 19 9 z M 28 9 A 1.0001 1.0001 0 0 0 27 10 L 27 47 A 1.0001 1.0001 0 0 0 28 48 L 32 48 A 1.0001 1.0001 0 0 0 33 47 L 33 10 A 1.0001 1.0001 0 0 0 32 9 L 28 9 z M 37 9 A 1.0001 1.0001 0 0 0 36 10 L 36 30 A 1.0001 1.0001 0 0 0 37 31 L 41 31 A 1.0001 1.0001 0 0 0 42 30 L 42 10 A 1.0001 1.0001 0 0 0 41 9 L 37 9 z M 20 11 L 22 11 L 22 46 L 20 46 L 20 11 z M 29 11 L 31 11 L 31 46 L 29 46 L 29 11 z M 38 11 L 40 11 L 40 29 L 38 29 L 38 11 z" font-weight="400" font-family="sans-serif" white-space="normal" overflow="visible"/>
</svg>
