<?xml version="1.0" encoding="UTF-8"?>
<!-- Created with Inkscape (http://www.inkscape.org/) -->
<svg width="179.73mm" height="115.54mm" version="1.1" viewBox="0 0 179.73 115.54" xmlns="http://www.w3.org/2000/svg">
 <g transform="translate(-15.685 -85.011)">
  <g transform="matrix(.12667 0 0 .12667 115.58 133.59)">
   <g transform="translate(-3367 -527.92)">
    <ellipse cx="3294.4" cy="598.84" rx="620.42" ry="371.59" fill="#fff" stroke="#000" stroke-width=".25514"/>
    <path d="m3895.9 600.53c-80.238-124.58-169.85-214.18-283.59-277.25-113.74-63.071-204.92-87.108-322.14-86.937-117.21 0.17027-200.69 20.873-297.52 66.576-96.836 45.702-232.76 173.03-313 297.61 70.209 108.22 158.23 194.39 264.07 258.53 105.84 64.138 220.52 96.207 344.05 96.207 123.52 0 238.21-32.069 344.05-96.207 105.84-64.138 193.87-150.31 264.07-258.53zm101.35 0c0 17.948-5.2789 36.16-15.836 54.636-73.904 121.41-173.28 218.67-298.12 291.79-124.84 73.112-256.68 109.67-395.52 109.67-138.83 0-270.67-36.688-395.52-110.06-124.84-73.376-224.22-170.51-298.12-291.39-10.558-18.476-15.836-36.688-15.836-54.636 0-17.948 5.2787-36.16 15.836-54.636 73.904-120.88 173.28-218.02 298.12-291.39 124.84-73.376 256.68-110.06 395.52-110.06 138.83 0 270.67 36.688 395.52 110.06 124.84 73.375 224.22 170.51 298.12 291.39 10.557 18.476 15.836 36.688 15.836 54.636z" fill="#1e1e1e" stroke-width=".79182"/>
   </g>
   <g stroke-width=".26458">
    <path class="st1" d="m233.41 176.64c-16.298 135.81-171.27 211.48-296.1 181v-0.52916c-3.7571 0.39687-7.1702-1.4817-10.795-2.1431-1.2435-0.23813-2.4077-0.66146-3.4925-1.2965-1.4552-0.37042-2.8575-0.44979-4.2333-1.0583v-0.52917c-1.9315 0.42333-3.6248-0.68791-5.371-1.2435-2.0638-0.52917-4.0217-1.4288-6.006-2.196-1.0848-0.23812-2.0902-0.52916-2.9104-1.3229-1.0583-0.34396-2.0638-0.44979-3.175-0.79375-0.74084-0.42333-1.5346-1.0054-2.3813-1.0583v-0.52917c-12.991-4.101-25.268-10.345-37.835-15.61v-0.52917c-0.34396-0.0794-0.68792-0.18521-1.0583-0.26458v-0.52917c-1.4023-0.13229-3.3338-0.0529-3.9688-1.5875-4.3921-2.4342-9.2869-3.8629-13.388-6.8262-2.1167-1.8256-4.5508-3.0162-7.2496-3.7571-3.3338-2.1696-7.4613-0.58209-8.2021 3.4396h-0.52917c-0.34396 2.9369-3.2015 4.736-5.5563 6.0854-9.7367 12.197-25.691-1.1642-35.719-6.6146v-0.52917c-0.4498-0.0794-0.87313-0.18521-1.3229-0.26458v-0.52917c-2.4077-0.55562-4.1804-2.3548-6.35-3.4396v-0.52917c-0.44979-0.0794-0.87313-0.18521-1.3229-0.26458v-0.52917c-0.44979-0.0794-0.87313-0.18521-1.3229-0.26458v-0.52917c-20.399-11.404-36.169-30.454-49.742-49.212v-0.52916h-0.52917c-3.4131-5.4769-7.0115-11.218-9.2604-17.198h-0.52917c-0.0794-0.34395-0.18521-0.68791-0.26458-1.0583h-0.52917c-9.7367-22.701-26.353-42.36-35.983-65.087h-0.52917c-0.0794-0.34395-0.18521-0.68791-0.26458-1.0583h-0.52917c-0.26459-1.1642-0.55563-2.3548-1.0583-3.4396h-0.52916c-1.614-6.006-5.3446-11.245-6.35-17.462h-0.52917c-2.249-6.2706-4.4715-12.515-6.3765-18.918-1.1906-3.2808-1.1906-6.9585-3.1486-9.9219-0.50271-0.97895-0.635-2.196-0.52916-3.175h-0.52917c-8.7048-41.01-8.7577-84.27 2.1167-124.88h0.52917c3.519-15.901 9.2075-31.565 17.198-45.773 0.26458-0.0794 0.52917-0.18521 0.79375-0.26458 0.34396-1.5081 0.58209-2.9898 1.5875-4.2333h0.52917v-1.0583h0.52917c0.74083-1.0054 0.71437-2.5929 1.3229-3.7042h0.52916c0.74084-3.4925 3.7306-5.9796 5.5563-8.9429 3.0956-4.4979 8.0434-7.3819 10.398-12.435 7.8581-16.536 13.256-34.105 21.616-50.324h0.52917c0.0794-0.52916 0.1852-1.0583 0.26458-1.5875h0.52917c0.10583-1.3229 0.79375-2.4871 1.3229-3.7042h0.52916c18.547-45.958 71.147-69.532 116.95-78.846l0.26458-0.26458c21.802-2.9633 45.985-8.9958 66.675 1.3229v0.52917c8.6783 3.1485 15.319 10.61 20.373 17.992v0.52917c0.26458 0.0794 0.52916 0.18521 0.79375 0.26458 4.8948 7.5671 11.033 14.446 13.494 23.283 1.5081 2.5665 2.8575 5.08 3.9158 7.8317 1.0054 3.6777 3.3602 7.329 2.9633 11.218h0.52916c1.8256 15.108 5.8738 31.38-0.79375 45.773 6.694 4.9742 14.367 8.4667 22.225 11.112v0.52917c20.161 4.4714 52.705 25.479 18.256 38.365-0.0794 0.1852-0.18521 0.34395-0.26459 0.52916-11.615 4.154-23.865 7.7523-36.222 8.7842-4.789 0.5027-9.8161-1.3758-14.314 0.47625v0.52916c-13.335 5.7414-28.046 3.0692-41.275 2.6458-3.4925 2.4871-6.4823 5.7679-9.4986 8.8106-1.4817 1.6933-3.3073 3.2808-3.9952 5.4769h-0.52917c-0.37041 1.8785-1.1906 3.6248-1.3229 5.5562h0.52917c0.635 3.7042 2.249 7.1437 3.4396 10.583h0.52917c0.37042 0.87313 1.1112 1.6669 1.0583 2.6458h0.52917c4.445 6.3235 12.091 9.181 17.463 14.552 4.2333 0.18521 9.2075-0.23812 12.171 3.4396v0.52917c4.3656 1.1642 8.89-0.42333 13.229-0.79375v-0.52917c1.9844-0.37041 3.8365-1.3494 5.8208-1.5875v-0.52917c2.196-0.9525 4.4715-1.8785 6.0854-3.7042 1.5875-0.76729 3.175-1.5346 4.5244-2.6988 2.4606-3.1485 5.9267-5.0006 9.7367-5.9531 3.7571-1.3758 3.6513-1.4288 6.7204-1.8256 2.4342-0.66145 5.08-1.8521 7.4083-0.13229 1.1642 0.58208 1.7463 1.3758 1.6404 2.7781 0.15875 3.0427-2.0902 3.7571-4.6302 4.1275 0.34395 2.5664 2.831 7.911 5.2917 8.9958v0.52916c1.4023 0.42334 2.8046 0.74084 4.2333 1.0583v-0.52917c3.7042-1.6404 10.874-0.79375 7.0115 4.6567-1.0319 1.1906-2.2225 2.9369-3.8365 3.0162 0.10583 2.5929 0.0265 5.2387 1.0583 7.6729 0.26458 0.13229 0.26458 0.13229 0.52917 0.26458 0.37042 0.79375 0.66146 1.614 1.0583 2.3812 4.0217 0.87313 10.425-2.5664 9.7896 4.4979-0.18521 0.0794-0.34396 0.1852-0.52917 0.26458-0.44979 1.7198-2.3019 3.7306-4.2333 3.175-1.0583 4.3127-2.7517 9.1546 0.52917 12.965 0.60854 0.10583 1.2435 0.1852 1.8521 0.26458v0.52916c7.62-0.1852 3.3338 7.8317-2.3813 7.4083-11.06 8.8106-26.511-3.3867-44.715 2.1167v0.52917c-7.5936 2.8046-8.0698 4.154-12.435 10.583-3.4396 1.3229-6.8527 2.5665-10.583 2.1167 0.18521 4.7096-2.4342 9.1016-3.3338 13.652-1.9315 20.214 6.1913 51.594 23.151 63.182 4.445 4.1275 12.409 0.52917 17.965 0.84667 1.7727-0.0265 3.4925-0.21167 5.08-0.9525v-0.52917c2.884-0.74083 5.2917-2.6723 8.2286-3.2279 1.7198-0.34396 3.2808-1.4023 5.0006-1.5346v-0.79375c3.2279 0.52916 6.5352 0.21166 9.7896 0.26458 0.0529-1.4288 1.5081-1.9314 2.3812-2.9104 4.1275-5.5827 7.3025-12.118 7.4348-19.156 0.13229-3.8629-0.3175-7.8316 0.39687-11.642 0.635-1.9579 1.7198-3.7042 2.2225-5.715h0.52916c0.39688-4.9742 0.39688-4.5508 3.175-8.4667 2.196-0.0794 3.7571 0.55562 4.2862 2.7252 0.47626 1.5081 1.0319 3.1221 0.74084 4.6831 1.7198 0.47625 2.9633 1.8785 4.5508 2.6723 0.89958 0.55562 2.0902 0.60854 2.8575 1.2964 9.5779 1.6404 4.3921 0.47625 10.319-3.466 5.2652-1.905 6.1648 5.3975 4.2333 8.7577-0.26458 1.5346 4.9213 5.1858 6.35 5.8208v0.52916c1.8256 0.0265 3.3073 1.3758 5.0271 1.5875 0.9525-2.4871 3.5454-3.175 5.9267-3.0427 4.3127 0.76729 1.6669 6.641 1.4023 9.3927 0.21167 4.8683 4.5773 10.081 9.4721 10.901 2.3019 0.79375 4.445-0.92604 6.7733-0.58208 1.4288 1.27 1.614 5.3975 0.52917 6.8792-1.0054 0.82021-2.0638 1.4288-2.4342 2.7517-3.0162 9.9748-14.235 12.065-21.114 18.415h-0.52917c-2.5665 4.101-6.4294 7.62-7.9375 12.435-0.29105 2.249 0.60854 4.3127 0.39687 6.5881 0.34396 5.4504-5.0006 10.134-2.7781 15.531 1.6669 6.059 3.3073 12.118 4.9213 18.203 0.92604 2.7781 0.42333 5.3181 1.7198 7.5935 1.3494 2.3283 0.37041 5.3181 1.8521 7.6464 1.2171 1.7992 2.3813 3.175 3.175 4.7625 26.749-1.6404 50.165-40.852 62.177-62.442h0.52917c5.2388-12.568 12.091-24.686 17.992-37.042h0.52917c39.873-93.609 136.82-61.039 109.51 37.28z" fill="#6b4041"/>
    <path class="st2" d="m-159.07-87.703h1.0583c0.18521 0.9525 0.34396 1.9315 0.52916 2.9104h0.52917c0.52917 1.2435 1.1112 2.4342 1.27 3.7835 0.74084 3.1221 2.8575 5.6885 4.154 8.5989 4.0746 4.8154 8.255 9.2604 12.568 13.811v0.52917c2.0638 0.3175 4.2862 3.6248 6.35 4.8154 6.3765 4.4979 13.203 8.5725 20.638 11.06v0.52917c0.68792 0.07938 1.4023 0.18521 2.1167 0.26458 0.0529 1.1642-1.0054 1.7462-1.8521 2.3812h-0.52916c-0.18521 0.79375-0.47625 1.0848-1.1642 1.614-3.3338 3.0956-7.0908 6.4294-8.6254 10.821-0.18521 0.07937-0.34396 0.18521-0.52917 0.26458-2.4606 4.9742-1.6933 10.61-0.79375 15.875 1.1377 1.1112 0.82021 2.6458 2.9104 2.6458 0.0794-1.8256 0.18521-3.6777 0.26458-5.5562 1.8256 2.3812 2.1431 5.5827 2.6458 8.4667 0.0794 0.079375 0.18521 0.18521 0.26458 0.26458 0.18521 0.87312 0.26459 1.7727 0.52917 2.6458 0.18521 0.079375 0.34396 0.18521 0.52917 0.26458 1.0319 2.54 1.1642 5.5298 3.7042 7.1437 0.50271 3.1485 2.9633 6.3764 3.175 9.525h0.52916c0.58209 1.4023 1.27 2.7517 1.5875 4.2333 0.18521 0.07937 0.34396 0.18521 0.52916 0.26458 0.18521 0.60854 0.37042 1.2171 0.52917 1.8521h0.52917c0.18521 0.60854 0.34396 1.2171 0.52917 1.8521h0.52916c1.0583 1.7992 2.1696 3.5983 2.9104 5.5562 0.82021 1.8521 2.3812 3.5454 2.6458 5.5562h0.52917c0.18521 0.60854 0.34396 1.2171 0.52917 1.8521h0.52917c0.07937 0.44979 0.18521 0.87312 0.26458 1.3229h0.52917c1.4552 3.2808 2.8575 6.5881 4.4979 9.7896-0.05292 0.37042-0.13229 0.71437-0.26458 1.0583-1.2435-0.52917-2.54-0.92604-3.7042-1.5875-0.13229-0.34396-0.23812-0.66146-0.26458-1.0583-1.561-0.13229-2.54-1.905-4.2333-1.3229-1.3758 1.0583-0.21167 2.831 0.52917 3.9687v0.52917h0.52917c1.9315 3.8365 4.6567 7.276 5.2917 11.642 1.3758 3.175 2.6194 6.4029 4.2598 9.4456 0.34396 0.635 0.29104 1.3229 0.23812 1.9315-4.736 0.82021-6.1119-4.1804-9.525-3.4396-1.5081 1.2965-0.58208 4.9742-0.82021 6.9056-0.0529 3.2279-0.0265 6.4029 0.3175 9.6044 0.02646 5.1858-0.47625 10.001 0.71438 15.108 0.55563 2.0637 0.42333 4.4185 1.6404 6.2177 0.23813 1.4552 0.05292 3.0427 0.52917 4.4979-2.4606 0.0794-4.0481-1.7727-5.8208-3.175v-0.52916h-0.52917c2.0638 5.371 4.2598 9.9748 8.2021 14.287 2.4077 2.5929 2.0373 3.175 3.9688 5.2917 1.7198 2.1167 3.175 4.4185 4.7625 6.6146 1.0054 0.44979 1.27 1.5346 1.8521 2.3812 4.789 4.9742 8.0698 11.668 13.758 15.875v0.52917c-5.4504-0.34396-10.425-2.5929-15.081-5.2917-0.07937-0.18521-0.18521-0.34396-0.26458-0.52917-2.1696-1.0054-4.2598-2.0902-5.8208-3.9687-0.44979-0.60854-1.1906-0.76729-1.8521-1.0583-0.71438-0.58208-1.4023-1.2965-2.3813-1.3229-0.21167 2.3812 10.848 11.324 13.229 12.171 0.07937 0.26458 0.18521 0.52917 0.26458 0.79375 3.466 1.9579 6.7733 4.3921 10.583 5.8208v0.52917c0.635 0.13229 1.2965 0.18521 1.8521 0.52917v0.52916c1.1906 0.0529 2.2225 0.71438 3.2279 1.27 2.831 1.561 5.8208 2.7517 8.6783 4.2862v0.52917c0.635 0.13229 1.2965 0.18521 1.8521 0.52917v0.52916c0.635 0.13229 1.2965 0.18521 1.8521 0.52917v0.52916c0.635 0.13229 1.2965 0.18521 1.8521 0.52917v0.52916c2.7517 0.4498 5.0006 2.6458 7.0379 4.445 5.0006 3.6248 9.5779 7.7258 13.494 12.515 8.5196 8.0962 15.505 17.462 20.929 27.94 2.2754 6.35 2.9369 13.282 3.7042 19.976 0.50271 3.81 2.0638 7.4348 2.196 11.324-3.7042 1.5875-6.2706-2.4077-8.8106-4.4185-1.614-1.1377-2.3283-3.7042-4.6831-3.2544-1.905 7.6994-3.2544 15.531-5.5298 23.177-0.84667 3.0162-2.2754 5.7679-2.9369 8.8371-0.60854 0.18521-1.2171 0.13229-1.8521 0-1.905-1.7198-2.8046-4.3656-3.9688-6.6146-2.1431-4.4715-4.3127-8.9429-6.35-13.494-1.7463 0.7673-1.561 3.1221-2.4342 4.6038-0.82021 1.7198-1.27 3.5454-1.5346 5.4504-1.5346 3.4925-1.7463 8.7048-2.9633 11.43-0.66146 1.7462-0.39688 3.81-1.27 5.5033-1.3758 0.68791-2.9369 1.3229-4.4979 1.3229v0.52917c-1.2965 0.44979-2.54 1.1906-3.9688 1.0583v0.52917c-7.0644 1.9579-14.182 3.6777-21.431 4.7625-2.8575 0.44979-6.7733-0.52917-9.2604 0.79375-0.23812 0.60854-0.3175 1.2171-0.26458 1.8521 0.3175 0.39687 0.635 0.76729 1.0583 1.0583v0.52917c1.5081 0.0529 2.9369 0.29104 4.2333 1.0583v0.52916c-11.615 3.4396-22.49 5.3181-33.867 3.7042v-0.52916h-2.9104c-1.6404 3.0956 1.8256 5.0271 4.2333 6.0854v0.79375c-5.7415-0.71438-11.007-3.4396-16.669-4.4979v-0.52917c-9.2604-1.9315-15.663-6.059-23.283-10.054v-0.52917c-0.44979-0.0794-0.87313-0.18521-1.3229-0.26458v-0.52917c-0.44979-0.0794-0.87313-0.18521-1.3229-0.26458v-0.52917c-4.1275-1.2171-7.2231-4.6567-11.113-6.35v-0.52916c-1.1906-0.26459-2.0108-1.1112-2.9104-1.8521-1.7992-0.71438-5.7415-3.2544-6.4558-5.0006 0.3175-5.8208 9.4721-6.2706 13.864-7.6994 0.0794-0.1852 0.18521-0.34395 0.26458-0.52916 2.3019-0.89958 5.5563-2.831 7.6729-2.9104v-0.52917c2.0902-1.7992 4.2598-2.9898 6.35-4.7625 1.4288-2.831 4.1804-4.8419 5.0271-7.9375 0.26459-0.0794 0.52917-0.18521 0.79375-0.26459-0.0529-1.9844 1.5875-3.466 2.9104-4.7625h0.52916c-0.0794-1.4817-0.18521-2.9633-0.26458-4.4979-2.4871-0.92604-4.9213 0.42333-7.4084 0.26458-0.50271-1.3229-1.5081-2.54-1.5875-3.9687h-0.52917c-1.3494-4.8419-2.2754-9.7102-3.0692-14.658-0.92604-2.2225 1.6669-3.3602 2.2754-5.1858h0.52917c0.42333-6.2442-3.6777-6.6675-7.9375-3.4396-2.6194 1.3494-13.097-9.6573-12.171-12.171-0.34395-0.18521-0.68791-0.34396-1.0583-0.52916 0.34396-3.0427 2.5665-3.9688 1.3229-7.9375-1.2965-0.76729-2.7781-0.71438-4.2333-0.52917-0.82021 0.60854-1.4288 0.97896-2.3812 1.3229-0.18521 0.42333-0.4498 0.74083-0.79376 1.0583-6.5881 0.68791-13.176 0.71437-19.05-2.6458-0.23812-2.831 2.0638-5.1858 0.79376-8.4667-1.6669-1.6669-3.6513-1.6933-5.2123 0.18521-1.2171 1.3494-2.9898 2.3812-3.2544 4.3127h-0.52917c-0.0265 0.37042-0.13229 0.71438-0.26459 1.0583-6.6675 3.8629-8.2815 11.695-9.525 18.785h-0.52917c-0.9525 9.3398-3.9952 11.8-12.435 6.8792-0.76729-0.58208-1.4552-0.97895-1.8521-1.8521-2.2754-0.79375-5.3181-0.18521-7.0379-2.0637-2.3283-3.7042-5.0271-7.1437-7.4348-10.795-3.519-5.4769-8.8371-10.689-11.456-16.245 0.26459 1.561 0.37042 3.175 0.26459 4.7625-3.8629 2.2754-5.2388-5.5298-6.5617-7.964-3.7042-8.255-6.1913-16.986-9.5779-25.374-0.0794 0.0794-0.18521 0.18521-0.26459 0.26458-0.15875 3.519-0.10583 7.0644-0.26458 10.583l-0.26458 0.26458c-3.175 1.0319-3.7306-2.7252-4.3392-4.9742-1.0583-3.0427-1.5875-6.4029-2.8046-9.3133-0.79375-2.9369-0.60854-6.3235-2.1167-8.9958-0.29104-2.0108-0.42333-4.0746-1.0319-6.0325-1.7727-8.5725-2.6723-17.357-3.4131-26.088-1.1906-11.562-2.4606-23.151-2.1696-34.819 0.60854 0.05292 1.2435 0.15875 1.8521 0.26458 4.4715 4.0217 6.8792 0.29104 11.113 7.4083v0.52917c0.26459 0.07937 0.52917 0.18521 0.79376 0.26458 1.1642 1.4817 2.3283 3.2015 3.4396 4.7625v0.52917h0.52917c0.0794 0.44979 0.18521 0.87312 0.26459 1.3229h0.52916c1.2436 1.9579 2.7517 4.0481 3.9158 6.0854 0.74084 1.4552 2.2225 2.54 2.4342 4.2333h0.52917c0.0794 0.44979 0.18521 0.87312 0.26458 1.3229h0.52917c0.92604 1.7462 1.0319 1.2965 1.0583 2.3812h0.52916c2.9898 5.424 7.6994 9.7102 11.43 14.499 1.4552 4.2069 4.445 9.7102 9.7367 8.5196 1.5081-1.561 0.74084-4.101 0.79375-6.0854-1.7462-2.3283-3.2808-5.7944-1.2965-8.4931 2.831-4.0481 6.2177-8.9958 11.271-10.134 1.561 0 2.7517 1.1906 3.81 2.2225 3.5719 1.9315 10.134 5.8208 8.9958-1.5875h-0.52917c-0.47625-2.884-2.9898-4.445-4.2333-6.8792-0.58209-3.6248-0.26459-7.4348-0.26459-11.112 0.29105-1.4023 1.1377-2.3283 1.2965-3.7306 4.2598-10.028 9.1811-2.5135 15.372-5.0006 0.0794-0.26458 0.18521-0.52916 0.26458-0.79375h0.79376c-0.1323-1.2435-0.0529-2.5135-0.52917-3.7042-0.37042-0.21167-0.66146-0.37042-1.0583-0.52917v-0.52917h-0.52916c-2.2754-2.9633-3.466-2.3548-4.7625-6.6146h-0.52917c-0.44979-0.9525-1.1906-1.7992-1.0583-2.9104h-0.52917c-1.4288-3.0956-1.8786-12.118 0.26458-14.817 2.4342-0.47625 5.1594 0.42333 7.4084-0.79375 1.1377-1.6933 1.5346-4.3921-0.52917-5.5562-0.89959-1.5875-2.5929-2.3019-4.2333-2.9104v-0.52917c-3.8629 0.13229-5.8738-5.8473-11.377-7.4083v-0.52917c-11.033-3.1221-22.384 0.44979-33.602-0.52917-0.55562-0.18521-0.55562-0.18521-1.0583-0.39688-1.0848-0.71437-2.5136-0.52917-3.5454-1.3494-0.74083-0.84666-0.34395-2.0108-0.68791-3.0162-1.2965-2.4871-3.3602-4.4979-5.8208-5.8208v-0.52917h-0.52916c-0.21167-1.6404-4.8154-3.175-6.35-3.4396 0.68791-4.6567 5.1065-7.1437 7.1438-11.112h0.52917c0.52916-2.249 2.1696-4.0217 3.3602-5.9796 2.3548-3.0692 4.101-6.8262 6.9586-9.3662 1.0319-2.8575 5.1065-8.7577 7.4084-3.7042 4.9742-5.3446 9.3398-11.589 13.494-17.727h0.52917c0.84666-2.5135 3.1221-4.2598 4.8683-6.1912 1.7992-1.905 2.2225-3.3073 5.1858-2.8046 2.54 3.3337 0.44979 7.8581 0.52917 11.642 7.62-10.927 20.981-26.564 33.179-33.39 5.5298-3.3337 10.689-7.2496 15.981-10.927 2.4077-1.7198 5.2388-2.6723 7.6465-4.3656 1.9844-1.27 3.6512-2.9898 5.6092-4.2333z" fill="#c99378"/>
    <path class="st3" d="m-185.53-167.61c0.97896-0.0794 1.9315-0.0794 2.9104 0-0.0794 0.18521-0.18521 0.34396-0.26458 0.52917-3.8365 1.1377-7.329 3.466-10.054 6.35-1.7198 2.2225-0.89958 5.6356 0.26459 7.9375 3.2279 5.2917 4.3921 7.1437 9.525 10.583 0.18521 0.55562 0.3175 1.0319 0.52917 1.5875 0.34396 0.10583 0.71437 0.1852 1.0583 0.26458 0.18521 0.44979 0.34396 0.87312 0.52917 1.3229 0.34396 0.1323 0.68792 0.21167 1.0583 0.26459 1.5346 1.5346 2.3019 0.84666 3.5454 3.2808 1.4023 1.5875 1.5081 3.4925 1.4817 5.5298 0.10583 2.1167 0.39687 3.9158-1.0319 5.7414h-0.52917c-1.1377 2.4606-2.3548 6.0854-5.5033 6.2706-1.8785 0.10583-3.2279-1.5081-4.6567-2.4871-2.249-1.1112-2.5665-3.6248-2.2754-5.9002 0.42333-0.4498 0.87312-0.89959 1.3229-1.3229 0.10583-0.55562 0.13229-1.0319 0-1.5875-0.18521-0.18521-0.34396-0.34395-0.52917-0.52916-1.9844-0.23813-4.101 0.0265-6.0854-0.26459-2.0373-0.74083-3.2015-3.2808-1.5875-5.0271h0.52917v-0.52917c0.50271-0.39687 0.89958-0.79375 1.3229-1.3229-0.0794-0.9525-0.0794-0.9525-0.26459-1.8521-2.9633 0.15875-5.6092-0.84667-8.4667-1.3229 0.0529-1.2964 1.1906-2.0373 2.0108-2.884 0.71437-0.87313 1.9315-0.92604 2.7517-1.614v-1.5875c-2.4077-0.71437-4.8948-1.0319-7.4084-1.0583 0.42334-1.8256 1.6404-3.2279 2.6458-4.7625h0.52917c0.0265-0.60854-0.21167-1.0848-0.52917-1.5875-2.7781-1.1377-6.0325-0.71437-8.7313-2.1167 1.0583-2.884 8.6519-5.9002 11.562-6.9056 4.5508-2.2225 9.3927-3.8629 14.34-5.0006z" fill="#ce9378"/>
   </g>
   <g transform="matrix(.26458 0 0 .26458 -378.68 -386.95)">
    <path class="st4" d="m1403.6 1577c2 2.6 3 6.8 2.6 13.4 0.6-6.7-0.4-10.8-2.6-13.4zm2 79.1c-0.5-0.2-1.1-0.3-1.7-0.4 0.6 0.1 1.2 0.2 1.7 0.4zm-16.1-52.5c0.8 0.1 1.6 0.1 2.4 0-0.8 0.1-1.6 0.1-2.4 0zm0 0c-0.4-0.1-0.8-0.1-1.2-0.3 0.3 0.2 0.7 0.3 1.2 0.3zm-19.5-30.1c4.9 1 10.6 0.3 16-0.2-5.5 0.4-11.2 1.1-16 0.2zm-11.8-70.7c2.8-0.3 5.8-0.4 8.5-0.1-2.7-0.3-5.7-0.2-8.5 0.1zm-29.5-51.1c0.1-1.6 0-3-0.3-4.2 0.2 1.2 0.2 2.5 0.3 4.2zm-8.6 13.6c2.9-1.1 5.3-2.7 6.9-5.2-1.6 2.4-4 4-6.9 5.2zm2.4-24.1c-1.2-0.8-2.3-1.4-3.5-1.9 2.3 1.1 4.4 2.5 6.6 3.9-0.8-0.7-1.8-1.4-3.1-2zm-1.4 50.6c0.9 2.4 2.6 4.1 4.5 5.6-2-1.9-3.5-4-4.8-6.3 0.2 0.2 0.3 0.5 0.3 0.7zm-8-16.5c1.1 2.7 2.5 5.4 3.9 8-1.2-2.7-2.8-5.2-3.9-8zm-2.3-37.4c1.4 0 2.8 0.1 4.2 0.3-1.3-0.2-2.7-0.3-4.2-0.3zm-4.5 0.3c1.4-0.2 2.8-0.3 4.3-0.3-1.5-0.1-2.9 0-4.3 0.3zm-5.9 1.9c-1.2 0.5-2.5 0.9-3.9 1.2 1.4-0.2 2.7-0.6 3.9-1.2zm-11.8 2.4c2.3-0.3 4.6-0.5 6.9-0.9-2.4 0.4-5.2 0.7-6.9 0.9zm-4.9 1c-2.2 0.6-4.5 1.4-7.9 2.6 2.8-0.9 5.5-1.7 7.9-2.6zm-30.4 242.4c3.5-0.2 7.1-0.2 10.7-0.2-3.6-0.1-7.2 0-10.7 0.2zm-4.1-229.5c-0.9 0.5-1.8 1-2.7 1.6 4.3-2.6 9.3-4.8 14.3-6.7-4.1 1.1-8.2 2.4-11.6 5.1zm-11.8 9.2c-1.5 1.5-2.9 3.1-4.4 4.7 1.5-1.5 3-3 4.4-4.7zm-8.8 8.4c-2.6 1.8-5.3 3.4-8.2 4.8 3-1.3 5.7-3 8.2-4.8zm-14 8.1c0.6-0.5 1.2-0.9 1.8-1.3-0.7 0.3-1.4 0.6-1.8 1.3zm-3.4 3.2c0.2-0.2 0.4-0.4 0.6-0.7-1.8 1.5-3.8 2.9-5.8 4.1 1.8-1 3.5-2.1 5.2-3.4zm-62.3 468.9c-1.1-2.9-2.3-5.9-3.4-8.9 1 3.1 2.1 6 3.4 8.9zm-27.7-90.7c3.5 17.2 9 34.2 14 51-6.1-20-10.8-38.1-14-51zm9 126.5v-0.6c-0.2-0.1-0.5-0.2-0.7-0.2 0.2 0.2 0.5 0.5 0.7 0.8zm-6.7-210.9c2.5-7.4 5.3-14.8 7.1-22.3-1.9 7.5-4.8 14.9-7.1 22.3zm-4 14.8c-1.1 6.5-1.3 13.2-1.4 19.9 0.4-6.7 0.9-13.3 1.4-19.9zm-28.3 145.2v-0.8c-0.3-0.1-0.5-0.2-0.8-0.3 0.3 0.4 0.5 0.8 0.8 1.1zm-83-459.1v-0.6c-0.3-0.1-0.6-0.2-0.9-0.3l0.9 0.9zm-21-101.9c-0.6 1.9-1.1 3.8-1.4 5.7 0.4-1.9 0.9-3.8 1.4-5.7z"/>
    <path class="st4" d="m2328.6 1995.8c-13.5 251.8-112.6 527.5-339.5 661.5-232.4 148.6-523.7 228.8-794.9 157v-2c-14.2 1.5-27.1-5.6-40.8-8.1-4.7-0.9-9.1-2.5-13.2-4.9-5.5-1.4-10.8-1.7-16-4v-2c-7.3 1.6-13.7-2.6-20.3-4.7-7.8-2-15.2-5.4-22.7-8.3-4.1-0.9-7.9-2-11-5-4-1.3-7.8-1.7-12-3-2.8-1.6-5.8-3.8-9-4v-2c-10.2-1.2-18.4-6.7-27.8-10-10.8-4.6-22.3-7.2-32.5-13.2-27.6-11.9-55.3-23.4-82.7-35.8v-2c-1.3-0.3-2.6-0.7-4-1v-2c-5.3-0.5-12.6-0.2-15-6-16.6-9.2-35.1-14.6-50.6-25.8-8-6.9-17.2-11.4-27.4-14.2-12.6-8.2-28.2-2.2-31 13h-2c-1.3 11.1-12.1 17.8-21 23-36.8 46.1-97.1-4.4-135-25v-2c-1.7-0.3-3.3-0.7-5-1v-2c-9.1-2.1-15.8-8.9-24-13v-2c-1.7-0.3-3.3-0.7-5-1v-2c-1.7-0.3-3.3-0.7-5-1v-2c-77.1-43-136.7-115.2-188-186v-2h-2c-12.9-20.7-26.5-42.4-35-65h-2c-0.3-1.3-0.7-2.6-1-4h-2c-36.9-85.8-99.6-160.1-136-246h-2c-0.3-1.3-0.7-2.6-1-4h-2c-1-4.4-2.1-8.9-4-13h-2c-6.1-22.7-20.2-42.5-24-66h-2c-8.5-23.7-16.9-47.3-24.1-71.5-4.5-12.4-4.5-26.3-11.9-37.5-1.9-3.7-2.4-8.3-2-12h-2c-32.9-155-33.1-318.5 8-472h2c13.3-60.1 34.8-119.3 65-173 1-0.3 2-0.7 3-1 1.3-5.7 2.2-11.3 6-16h2v-4h2c2.8-3.8 2.7-9.8 5-14h2c2.8-13.2 14.1-22.6 21-33.8 11.7-17 30.4-27.9 39.3-47 19.4-38.6 33.4-79.9 49-120.2 2-5.3 3.1-11.3 7.7-15.1 2.7-6 4.9-12.2 8-18.1 3.2-6.1 5.4-12.6 8-18.9 3.5-5.8 7.3-11.4 9-18h2c0.3-2 0.7-4 1-6h2c0.4-5 3-9.4 5-14h2c70.1-173.7 268.9-262.8 442-298l1-1c82.4-11.2 173.8-34 252 5v2c32.8 11.9 57.9 40.1 77 68v2c1 0.3 2 0.7 3 1 18.5 28.6 41.7 54.6 51 88 5.7 9.7 10.8 19.2 14.8 29.6 3.7 13.9 12.7 27.7 11.2 42.4h2c6 32.7 7.6 66.2 11.2 99.3 0.3 13.3 0 26.6-2.2 39.7-3 11.9-9.5 22.5-12 34 25.3 18.8 54.3 32 84 42v2c30.8 9.4 63 21.1 89.7 39.6 60.2 41.7 41 83-20.7 105.4-0.3 0.7-0.7 1.3-1 2-44 15.8-90.2 29.3-136.9 33.2-18.1 1.9-37.1-5.2-54.1 1.8v2c-41.4 18.8-90.8 12.8-131.7 12.1-8.1-0.4-16.2-3.9-24.3-2.1-13.2 9.4-24.5 21.8-35.9 33.3-5.6 6.4-12.5 12.4-15.1 20.7h-2c-0.5 2.6-1.3 5.2-2.1 7.8l-0.9-1.8c-4.4 6.7-3.3 13.6-4 21-5.3 10.2-4.4 20.9-4 32l-4 1v-2c-0.7-0.3-1.3-0.7-2-1-0.4 0.7-0.6 1.4-0.8 2.1-7.4-20.2-7.7-44.2 0.8-64.1 0.7-0.3 1.3-0.7 2-1 3.1-13.4 25.9-36 37-45v-2c3.5-1.4 6.1-3.1 9-6v-3c-2.6-0.3-5.3-0.7-8-1v-2c-35.6-11.8-71.7-35.2-99-60h-3c-2.2-5.3-6.3-9.8-11-13-0.3-1-0.7-2-1-3-6.9-3.9-11.7-10.1-16.6-16.1-7.6-9.8-16.9-18.5-22.5-29.5-11.1-16.9-15.6-36.3-20.8-55.4-7.9-8.3-15.8-16.4-22.9-25.5-7.9-7.5-11.2-18-17.1-26.5-0.1-3.1-0.1-3.1 0-6 22-0.8 35.7 38.9 54 44 16.2-35.3 65.2-65.8 96.7-83.9 37.2-20.8 79.7-21.4 120.3-30.4 32.1-6.9 107.9-23.8 120.4 17.3 0.6 18 21.4 8.9 20.6 44.1 2.7 3.6 7.2 3.5 11 5 17.7-35 11.1-76.6 7-114.1-2.3-13.7-1.4-25.3-3.8-38.9-2.5-12-7.4-23.4-11.2-35h-2c0.8-7.1-3-12.5-7-18-4-8.1-5.6-19.6-13-25-2.3-6.2-4.6-12.3-8-18-2.7-2.3-3.9-4.3-5-7.8-2.2-4.7-3-10.7-8-13.2-3-9.2-10.3-16-14-25-0.7-0.3-1.3-0.7-2-1-13.5-25.1-34.1-46.7-54-67h-4c-0.3-1-0.7-2-1-3-9.4-6.8-21.1-10-31.5-15-12.4-5.8-23.9-12.4-37.6-14.6-183.2-17.8-395.5 43.9-532.9 168.6v2c-14.8 8.7-69.5 69.6-69 86-1.3 0.7-2.7 1.3-4 2-4 10.6-12 20.6-13 32-1 0.3-2 0.7-3 1-3.8 10.3-9.6 20.2-11 31h-2c-12.7 23.3-21.2 48.8-31.7 73.1-4.3 9.4-7.8 19.1-11.4 28.8-3.7 11.2-10.9 21.1-11.9 33.1h-2c-10.7 21.6-18.3 45.4-34.8 63.4-4.7 5.9-11.2 10-16.2 15.6-4.7 8.9-13.7 14.4-20 22-3.3 9.8-14.9 14.4-14 26-1 0.3-2 0.7-3 1-0.7 1-1.3 2-2 3v4h-2c-2.8 8.5-7.2 15.9-8 25-8.1 11.9-10.8 24.5-16.3 37.6-5 14.2-14.3 27.2-15.7 42.4h-2c-4.2 11.4-7 15.8-9 28h-2c-1.7 9.2-6.5 17.8-7 27h-2c-1.3 5-3.4 9.8-3 15h-2c-66 188.2-58.3 398.1 8 585h2c1.2 5.8 2.6 12.1 6 17-0.3 6.1 2.4 11.4 5.3 16.6 5.5 11.7 9.3 24.2 13.7 36.4 0.7 0.3 1.3 0.7 2 1 16.5 46.2 45.1 87.4 67 131h2c1.9 5.2 4.5 10.1 7 15h2c1.7 4.3 5.6 8.3 6 13h2c7.7 17.3 20.4 31.6 28 49h2c2.8 10.7 11.3 20.1 14 29h2c2.3 5.7 4.6 11.3 7 17h2c1.5 4.5 2.6 8.8 5 13h2c1.5 7 5.8 11.3 7 18h2c4 16.5 14.1 30.4 20 46h2c61.9 105 156.9 191.4 266 245 0.3 0.7 0.7 1.3 1 2 37.2 20.7 86.9 10.4 105-30 6.6-22.9 7-42.1-3.7-63.6-12.9-41.2-46.8-70.6-76.3-100.4-23.3-27.2-42.6-57.3-59-89h-2c-19.2-44.3-34.3-95.2-76-124h-2v-2c-2.2-1.4-4.2-2.3-7-2v-2c-7.3-0.6-13-4.9-20-6.4-10.5-3.3-21.5-3.7-32.1-6.4-8.4-1.8-16.3-6.3-24.9-6.2v-2c-11.1-2-21.1-8.1-32-10v-2c-6.5-2.4-13.3-5.9-17-12 5.3 1 10.5 3.2 16 3v2c12.7 5.5 26.5 7.1 39.7 11.2 22.7 7.2 48.5 3.6 69.3 16.8 9.5 0.7 18.6 3.6 28.1 4.9 5.8-0.1 7.2 4.3 10.7 7.8 32.1 18.6 44.6 11 48.2-25.6h2c3.1-23.9 13-59.4 36-71 0.5-1.3 0.9-2.6 1-4h2c1.5-6.1 5.8-10.2 10.3-14.3 5.6-7.4 14.9-10.3 21.7-2.7 2.3 7.9 1.5 18.1-3 25-0.1 2.3-0.1 4.7 0 7 10.7 4.6 21.5 10.3 33.4 11.2 12.8-0.4 26 0.6 38.6-1.2 1.5-1.5 2.9-3.1 4-5 3.2-1.5 5.3-1.8 8-4 5.3-0.4 11.2-0.9 16 2 3.6 10.7-0.3 16.8-5 26 0.2 1.8 0.4 3.2 1 5 1 0.3 2 0.7 3 1 0.8 14 15.8 24.1 24.4 34.3 6.3 4.7 12.9 13.8 21.6 11.7 6-6.3 16.8-9 25-6 5 5.1 4.7 12.4 5 19-1 0.3-2 0.7-3 1-1.8 4.7-5.1 8-8 12 1.6 21.3 6.8 41.5 12 62h2c1.6 5.2 3.3 10.3 6 15 9.4-0.1 18.7-4 28-1 0.3 5.6 0.7 11.2 1 17h-2c-4.6 5.2-11.1 10.5-11 18-1 0.3-2 0.7-3 1-3.4 10.9-12.6 18.7-18 28.7-6.7 8.4-17.4 12.3-25 19.3v2c-10.2 1.9-19.5 7-29 11-0.3 0.7-0.7 1.3-1 2-14.9 5.5-42.5 6.4-51 20-15.2 8.2 6.7 53 5 68-7.1 0.9-12.8 6.6-10 14 2.6 4.4 6.5 7.4 8.1 12.5 3.4 10.1 5.5 20.5 8.9 30.5 0.6 10.3 0.1 20.7 0 31 16.4-1.1 31 5.4 45.2 12.7 12.4 6.6 22.7 17.4 36.8 20.3 0.7 1 1.3 2 2 3 9.5 4.5 19.2 8.3 28.6 13.2 6.3 2.4 11.4 8.4 18.4 7.8v2c213.1 95.1 409 160 644.8 118.2 231.9-37.6 538.5-183 642.2-404.2h2c2.2-4.9 4.5-9.8 6-15h2c58.8-129.3 129.1-349.7 79.4-486.9-134.7-231.7-324-24.2-392.4 140.9h-2c-15.6 33.9-36 66.2-49 101h-2c-2.4 4.9-6.8 9.2-6 15h-2c-55.8 92.3-124.3 207.4-237 232-35.5 4.1-66.5-17.2-96.3-33.5-25.5-14.3-55.9-25-77.7-44.6v-3c12.7-2.2 22.9 10.2 35 11v2c11 4.3 22.2 8.3 33 13 3.9 1.7 7.1 2.5 11 2 0.3 1 0.7 2 1 3 6.5 2.2 13 5.2 20 5v2c5.7 2.5 11.8 4.2 18 4v2c7.9 2.3 15.7 5.3 24 6-8.7-31.4-13.2-63.7-23.7-94.6-1.7-7.1-2.1-14.3-3.3-21.4-4.8-7.6-4.4-16.9-6.9-25.3-19.8-59.8-78.3-127.2-140.1-144.7v-2c-38.1-11.5-78.4-20.2-118.5-20.3-18.1-0.1-35.1 6.1-53 6.4-26 0.5-52.1 0.7-76.4-9.1v-2c-3.8-3.4-9.1-4-14-5v-2c-11.9-3.6-20.3-12.9-29.9-20.3-6.9-6.7-24.7-18.3-25.1-27.7 3.7 1.4 7.5 2.7 10 6 6.4 1.7 10.3 6.5 15 11 18.4 11.9 37.5 23.1 59.2 27.9-0.1 0-0.1 0.1-0.2 0.1 12.1 4.7 12.5 3.1 30 3v-1c-7.1-7.1-12.1-15.9-18-24h-2c-1.5-6.5-4.7-13.1-9-18h-2c0-4.2-3.3-9-5-13-1-4.8-0.3-9.7-3-14h2c0.4 5.3 5.1 9.7 8 14h2v3c1.5 2.2 1.5 2.2 3 4 0.3-0.7 0.7-1.3 1-2-2.1-3.1-3.6-6.4-5-9.8 7.3 14.6 15.4 26.6 24 32.8 4.3 9.8 16.4 14.1 23.9 21.4 4.2 3.3 8.4 6.9 14 7.2 18.1 0.4 35.9-3.5 53.9-4.1 6.7-0.1 13.2-0.8 19.2-3.6v-2c10.9-2.8 20-10.1 31.1-12.2 6.5-1.3 12.4-5.3 18.9-5.8v-3c12.2 2 24.7 0.8 37 1 0.2-5.4 5.7-7.3 9-11 15.6-21.1 27.6-45.8 28.1-72.4 0.6-14.6-1.2-29.6 1.5-44 2.4-7.4 6.5-14 8.4-21.6h2c1.5-18.8 1.5-17.2 12-32 8.3-0.3 14.2 2.1 16.2 10.3 1.8 5.7 3.9 11.8 2.8 17.7 6.5 1.8 11.2 7.1 17.2 10.1 3.4 2.1 7.9 2.3 10.8 4.9 36.2 6.2 16.6 1.8 39-13.1 19.9-7.2 23.3 20.4 16 33.1-1 5.8 18.6 19.6 24 22v2c7 0.2 12.5 5.3 19 6 3.6-9.4 13.4-12 22.4-11.5 16.3 2.9 6.3 25.1 5.3 35.5 0.8 18.4 17.3 38.1 35.7 41.2 8.7 3 16.8-3.5 25.6-2.2 5.4 4.8 6.1 20.4 2 26-3.8 3.1-7.8 5.4-9.2 10.4-11.4 37.7-53.8 45.6-79.8 69.6h-2c-9.7 15.5-24.3 28.8-30 47-1.1 8.5 2.3 16.3 1.5 24.9 1.3 20.6-18.9 38.3-10.5 58.7 6.3 22.9 12.5 45.8 18.6 68.8 3.5 10.5 1.6 20.1 6.5 28.7 5.1 8.8 1.4 20.1 7 28.9 4.6 6.8 9 12 12 18 101.1-6.2 189.6-154.4 235-236h2c19.8-47.5 45.7-93.3 68-140h2c47.3-95.5 137.7-222.9 257-216 22.8 2.4 56.1 18.2 73.6 26.3 69.4 38.8 103.7 118.6 98.5 196.3z"/>
    <path class="st4" d="m1405 1677.9c-4.7 4-10.8 5.2-16.8 5.4-30.1 25-69.6 6.2-103.9 3.4-13.2-1-26.7-1.8-39.8-0.1-9.1 1.2-16.3 4.9-25.3 4.7v2c-8.7 3.3-17.6 6.6-25.1 12.3-0.8 0.6-1.6 1.3-2.4 2-1.4 1.2-2.6 2.5-3.9 3.9-5.9 6.7-10.5 14.4-15.6 21.8-13 5-25.9 9.7-40 8 0 25-16.5 47-14.1 72.5-3.1 34.8 6.7 68 17.1 100.7 7.6 24.6 16.5 50.4 29 72.8-0.3 0.7-0.7 1.3-1 2-1.5-1.8-1.5-1.8-3-4v-3h-2c-2.9-4.3-7.6-8.7-8-14h-2c2.7 4.3 2 9.2 3 14 1.7 4 5 8.8 5 13h2c4.3 4.9 7.5 11.5 9 18h2c5.9 8.1 10.9 16.9 18 24v1c-17.5 0.1-17.9 1.7-30-3 0.1 0 0.1-0.1 0.2-0.1 3.9 0.8 7.8 1.3 11.8 1.1-3.3-7.8-12.3-11.8-17.6-18.4-7.5-9.2-14-18.8-21.4-28v-0.6c-14.2-15.4-26.1-33.5-39-50.2v-0.8c-0.3-0.1-0.5-0.2-0.8-0.3-17.8-23.1-36-44.9-44.2-71.7h2c0.3 1 0.7 2 1 3 6.1 4.6 12.6 11.8 21 11-2.5-7.3 0.4-15.7-5-22-1.9-7.9-1.4-15.3-4-23-4.1-16.2-1.2-33.4-1.9-50-0.4-10.7-1.9-21.4-1.3-32.2 1.2-10.6-3.3-23.7 3.2-32.8 15-2.5 16.5 16.1 36 13 0.4-6.9-3.2-11.5-6.1-17.5-2.7-7.2-9-20.5-10.9-25.5-2.9-16.3-12.6-29.6-20-44h-2c-1.7-5-5.3-9.4-4-15 4.4-5.7 10.8-0.3 15 3h3c0.1 1.4 0.5 2.7 1 4 4.5 3 9.6 5.3 15 6-2.6-14.3-12.7-27-17-41h-2c-0.4-2-0.5-2.6-1-5h-2c-0.7-2.3-1.3-4.6-2-7h-2c-4.4-15-14.2-28-21-42h-2c-0.7-2.3-1.3-4.6-2-7h-2c-0.6-2.4-1.2-4.7-2-7-0.7-0.3-1.3-0.7-2-1-2.1-5.3-3.9-10.7-6-16h-2c-2.9-9.1-3.8-19.4-10-27-0.9-3.2-0.8-5.9-2-9-1.1-0.7-2.1-1.5-3-2.4v-0.6c-6.9-5.1-7.5-16.3-11-24-0.7-0.3-1.3-0.7-2-1-1.2-4.8-1.6-10.4-4-15-2.1-9.5-2.6-20.2-9-28-0.3 6.9-0.7 13.9-1 21-4.3-0.5-7-2.8-8.8-5.9 0.2-0.7 0.4-1.4 0.8-2.1 0.7 0.3 1.3 0.7 2 1v2l4-1c-0.4-11.1-1.3-21.8 4-32 0.7-7.4-0.4-14.3 4-21l0.9 1.8c-1.3 4.3-2.6 8.6-2.9 13.2h2c2.4 14 8.5 27 13 40h2c1.4 3.3 4.2 6.3 4 10h2c16.8 23.9 45.7 34.7 66 55 16 0.7 34.8-1 46 13v2c16.5 4.4 33.6-1.6 50-3v-2c7.5-1.4 14.5-5.1 22-6v-2c8.9-3.5 17.2-8 24.1-14.6 8-3.5 15.5-8.2 21-15.1 9.6-11 25.2-14.5 38.4-19.5 7.1-2.8 13.5-3.7 20.8-4.8 6-2 11.9-4.5 18.5-3.2 21.1 4.3 17.4 28.3-3.8 29.1 0.2 5.7 3.2 10.9 5.8 15.9 3.3 7.6 6.4 14.4 14.2 18.1v2c5.3 1.6 10.6 2.8 16 4v-2c7.7-2.7 17.2-4.2 25-1.2 14.1 7.6-2.5 28.4-13 30.2 0.4 9.8 0.1 19.8 4 29 0.7 0.3 1.3 0.7 2 1 1.4 3 2.5 6.1 4 9 15 2.8 40.1-8.6 37 17-0.7 0.3-1.3 0.7-2 1-1.9 6.7-8.5 13.9-16 12-4 16.3-10.4 34.6 2 49 2.3 0.4 4.7 0.7 7 1v2c4.1-0.2 8.9 0.1 12.3 2.7 6.2 5.6 1.9 16.8-4.5 20z"/>
    <path class="st5" d="m981.2 1432.3c-3.7 0.9-7.2-0.5-9-4 0-0.6 0.1-1.2 0.2-1.9 1.8 3.2 4.5 5.4 8.8 5.9z"/>
    <path class="st5" d="m985.6 1385c-0.2 1.1-0.3 2.2-0.4 3.3 0.1-1.1 0.2-2.2 0.4-3.3z"/>
    <path class="st5" d="m988.2 1375.3c-0.3 0.9-0.7 1.8-1 2.8 0.3-1 0.6-2 0.9-2.9l0.1 0.1z"/>
    <path class="st5" d="m995.2 1454.3c0.7 0.3 1.3 0.7 2 1l-3-1c-3.4-13.7-5.7-27.9-11-41-0.7 6.3 0.1 13-2 19 0.3-7.1 0.7-14.1 1-21 6.4 7.8 6.9 18.5 9 28 2.4 4.7 2.8 10.2 4 15z"/>
    <path class="st5" d="m997.2 1455.3c3.2 7.8 4.4 17.4 10.1 23.7-0.7-0.2-1.4-0.4-2.1-0.7-3.3-6.9-7.8-15-8-23z"/>
    <path class="st5" d="m1008.2 1480c0.9 0.9 1.9 1.7 3 2.4-1-0.3-2-0.7-3-1z"/>
    <path class="st5" d="m1013.2 1491.3c6.2 7.6 7.1 17.9 10 27-3.7-8.9-4.8-19.4-11-27-0.8-2.9-0.8-5.9-1-9 1.2 3.1 1.1 5.8 2 9z"/>
    <path class="st5" d="m1031.2 1534.3c0.7 0.3 1.3 0.7 2 1-1-0.3-2-0.7-3-1-1.9-5.2-5-10.4-5-16 2.1 5.4 3.9 10.7 6 16z"/>
    <path class="st5" d="m1033.2 1535.3c0.8 2.3 1.4 4.6 2 7-1.3-2.1-2.4-4.2-2-7z"/>
    <path class="st5" d="m1037.2 1542.3c0.7 2.4 1.3 4.7 2 7-1.3-2.1-2.4-4.2-2-7z"/>
    <path class="st5" d="m1062.2 1591.3c-6.3-14.8-16.1-26.9-21-42 6.8 14.1 16.6 27.1 21 42z"/>
    <path class="st5" d="m1066.2 1598.3c-1.3-2.1-2.4-4.2-2-7 0.7 2.4 1.3 4.7 2 7z"/>
    <path class="st5" d="m1070.2 1880.3c-8.4 0.8-14.9-6.4-21-11-0.3-1-0.7-2-1-3 6 6.6 13 12.4 22 14z"/>
    <path class="st5" d="m1062.2 1628.3c3.5 1.8 5.9 5.2 10 6h-3c-4.2-3.3-10.6-8.7-15-3-1.3 5.6 2.3 10 4 15-5.4-6.5-9.7-21 4-18z"/>
    <path class="st5" d="m1072.2 1634.3c0.2 1.4 0.6 2.7 1 4-0.5-1.3-0.9-2.5-1-4z"/>
    <path class="st5" d="m1087.2 1643.3c-2.7-13.8-13.9-25.9-16-40 4.3 14 14.4 26.7 17 41-5.4-0.7-10.5-3-15-6 4.4 2.3 9.4 3.3 14 5z"/>
    <path class="st5" d="m1046.2 1866.3c8.1 26.8 26.4 48.6 44.2 71.7-0.7-0.2-1.4-0.5-2.2-0.7-17.1-25.5-36.5-43.5-42-71z"/>
    <path class="st5" d="m1097.2 1733.3c-19.5 3.1-21-15.5-36-13-6.5 9.1-1.9 22.2-3.2 32.8-0.6 10.8 0.9 21.5 1.3 32.2 0.6 16.6-2.2 33.8 1.9 50 2.7 7.7 2.1 15.1 4 23 5.4 6.3 2.5 14.7 5 22-4.5-5.6-0.4-13.7-4.4-19.3-4.7-8.9-2.3-19.4-6.6-28.7-2.3-17.9-0.3-36-1-54-2.3-11.5-0.7-23.4-1.2-35.1 0.7-7.9-2.5-18 4.2-23.9 14.6-2.6 13.8 13.6 36 14z"/>
    <path class="st5" d="m1080.2 1690.3c1.8 5 8.2 18.2 10.9 25.5 2.9 6 6.6 10.6 6.1 17.5-3.9-13.4-13.5-31.1-18-43-2.4-9.8-5.6-19.3-11-28-2.6-5.2-7.7-10-8-16 7.4 14.5 17.1 27.7 20 44z"/>
    <path class="st5" d="m1121.2 1863.5c-3.6-16.1-3.9-33-3.1-49.7-0.4 16.7-0.5 33.4 3.1 49.7z"/>
    <path class="st5" d="m1122.1 1783.7c-1.2 3.3-2 6.7-2.6 10.2 0.7-5 2.4-9.8 3.9-14.7-0.5 1.5-0.9 3-1.3 4.5z"/>
    <path class="st5" d="m1124.3 1983.1c1.8 2 3.5 4 5.2 6-4.9-1.8-8.5-7.9-10.3-12.8-10.2-11.1-19.1-23.6-28-36v-1.2c10.8 15 22.2 29.1 33.1 44z"/>
    <path class="st5" d="m1132.2 1743.2c0.1 4.3-0.6 8.5-1.5 12.7 1-4.2 1.5-8.4 1.5-12.7z"/>
    <path class="st5" d="m1145.5 1945.3c-3.8-10.2-7.2-20.7-10.3-30.8 3.3 10.3 6.9 20.5 10.3 30.8z"/>
    <path class="st5" d="m1159.2 1977.6c-3.6-7.2-7.1-15.2-10.3-23.4 3.9 7.5 7.6 15.3 10.3 23.4z"/>
    <path class="st5" d="m1169.2 2036.3c-15.1-13.3-27-29-39-45v-1.4c7.4 9.1 13.9 18.8 21.4 28 5.3 6.6 14.3 10.7 17.6 18.4z"/>
    <path class="st5" d="m1169.2 2036.3c-4 0.2-8-0.2-11.8-1.1 3.7-1.7 8 0.1 11.8 1.1z"/>
    <path class="st5" d="m1187.8 1711.6c0.6-0.7 1.3-1.4 1.9-2-0.6 0.6-1.2 1.3-1.9 2z"/>
    <path class="st5" d="m1189.7 1709.5c0.6-0.7 1.3-1.3 2-1.9-0.7 0.7-1.3 1.3-2 1.9z"/>
    <path class="st5" d="m1191.7 1707.7c0.8-0.7 1.6-1.4 2.4-2-0.8 0.6-1.6 1.3-2.4 2z"/>
    <path class="st5" d="m1195.7 1493.8c2.9-1.3 5.8-2.6 8.6-4.1-2.7 1.5-5.6 2.8-8.6 4.1z"/>
    <path class="st5" d="m1214.6 1482.1c-0.9 0.9-1.8 1.8-2.8 2.6 0.8-1 1.8-1.9 2.8-2.6z"/>
    <path class="st5" d="m1219.9 1479c0.2-0.1 0.4-0.2 0.6-0.2-1.3 0.7-2.7 1.4-4.1 2 1.1-0.7 2.2-1.3 3.5-1.8z"/>
    <path class="st5" d="m1230.2 1690.3c3.6-1.6 7.8-2.7 12.3-3.4-4.5 0.8-8.6 1.9-12.3 3.4z"/>
    <path class="st5" d="m1232.3 1471.1c-1.2 1-2.4 2-3.6 2.9 1.5-1.1 2.9-2.3 4.3-3.6-0.3 0.2-0.5 0.5-0.7 0.7z"/>
    <path class="st5" d="m1239.2 1463.3c2.1-2 4.6-3.8 7.3-5.4-3.4 2.2-6.4 4.9-9.2 7.7 0.7-0.7 1.3-1.5 1.9-2.3z"/>
    <path class="st5" d="m1275.6 1446.2c-4.2 1.5-10 3.9-14.7 5.1 5-2 10.1-3.6 14.7-5.1z"/>
    <path class="st5" d="m1273.3 1686c1.9 0.1 3.8 0.2 5.6 0.4-1.8-0.2-3.7-0.3-5.6-0.4z"/>
    <path class="st5" d="m1284.2 1443.3c1.4-0.4 2.9-0.6 4.3-0.8-1.9 0.3-3.4 0.6-4.9 1 0.3 0 0.4-0.1 0.6-0.2z"/>
    <path class="st5" d="m1301.3 1439.7c1.6-0.8 3.3-1.2 4.9-1.5-2 0.4-3.9 1.2-5.8 1.9 0.3-0.1 0.6-0.2 0.9-0.4z"/>
    <path class="st5" d="m1312.8 1474.5c-0.9-2.3-1.6-4.8-1.6-7.2 0.1 2.5 0.7 4.9 1.6 7.2z"/>
    <path class="st5" d="m1317 1466.2c-1.9 0.5-3.8 0.8-5.8 1.1 2-0.2 4-0.6 5.8-1.1z"/>
    <path class="st5" d="m1318.5 1439.1c-1.1-0.4-2.3-0.7-3.5-0.9 1.3 0.1 2.5 0.5 3.5 0.9z"/>
    <path class="st5" d="m1317 1483.3c1.4 2.6 2.8 5.2 3.8 7.8-1.3-2.4-2.5-5-3.8-7.8z"/>
    <path class="st5" d="m1325.6 1497.4c1.8 1.3 3.8 2.5 5.6 3.9-2.2-1.1-4-2.4-5.6-3.9z"/>
    <path class="st5" d="m1325.7 1443.3c1.6 0.7 2.4 2.8 2.7 4.1-0.5-1.7-1.4-3-2.7-4.1z"/>
    <path class="st5" d="m1328.4 1456.3c0.3-1.3 0.4-2.8 0.3-4.5 0.1 1.6 0 3.1-0.3 4.5z"/>
    <path class="st5" d="m1348.6 1504.8c0.5-0.2 1.1-0.3 1.6-0.5-0.5 0.2-1.1 0.3-1.6 0.5z"/>
    <path class="st5" d="m1371.1 1503.6c1.6 0.5 2.9 1.3 3.8 2.3-0.9-1-2.2-1.7-3.8-2.3z"/>
    <path class="st5" d="m1403.4 1576.7c-3.7-4.2-10.3-4-17.4-3.4 7.2-0.7 13.8-1 17.4 3.4z"/>
    <path class="st5" d="m1393.9 1682.8c1.8-0.3 3.4-0.7 5.1-1.3-1.6 0.6-3.3 1-5.1 1.3z"/>
    <path class="st5" d="m1399.3 1599.7c-0.8 0.8-1.6 1.5-2.5 2 0.8-0.5 1.7-1.2 2.5-2z"/>
    <path class="st5" d="m1399 1681.4c0.6-0.2 1.3-0.5 1.9-0.9-0.6 0.4-1.2 0.7-1.9 0.9z"/>
    <path class="st4" d="m671.2 1735.3h-3c0 1.5-0.4 2.6-1 4-6.6 3.3-15.3 3.2-22 0-5.3-0.8-10.8-0.4-16-2-28.8 11.4-25.4 49.9-23 76 4.1 9.3 15.3 14.7 15 26h2c5.6 15.1-6 22.1-18.8 14.9-6-3.5-12.2-6.4-18.2-9.9-4.1-4.7-8.8-7.3-15-6-18.3 8.7-31.9 25.2-41 43-1.6 9.4 2.7 18.5 8 26-0.3 8 2.8 18-4 24-14.9 3-26.1-8.2-32.8-20.4-8.9-25.4-33.4-41.6-47.2-64.6v-3h-2c-2.1-2.8-2.1-2.8-4-6v-3h-2c-0.3-1.7-0.7-3.3-1-5h-2c-8-12.4-15.6-24.9-24-37v-2h-2c-0.3-1.7-0.7-3.3-1-5h-2c-43.9-66-32.2-23.9-65-57v-2c-4.2-1.5-7.7-4.3-8-9-34.9 5.9-61.2-4.7-89-25v-2c-4.1-0.2-6.7-1.9-10-4-4.9-2-10-3.3-14-7-7.8-4.2-23.5-7.9-22-19 5.3 0.3 9.7 0.5 14 4 9.4 4.4 19.6 6.8 29 11l1 3c2.9 1.4 6.1 1.6 9 3l1 3c4.5-0.3 7.1 3.1 10 6 10 5.1 20.1 12.1 31.4 13.4 29.5 0.7 58.4-13.9 70.6-41.4h2c0.5-2.4 0.7-4.9 2-7h2c0.5-4.2 0-8.7 3-12h2c23.7-57.2 9.4-118.5 6-178h-2c-2.6-18.1-8.1-35.9-10-54h-2c-4.4-18.6-11.7-32.7-18.2-50.6-3.5-8-5.1-17.7-10.8-24.4-0.6-2.6-0.7-5.3-1-8 1.7-0.5 3.3-0.3 5 0 23.2 27.3 40.7 60.4 46 96l1 1c2.3 14.9 4.2 29.9 5 45h2c1.9 10.2 1.4 20.7 2 31 9 1.9 25.9 2.1 28 13h2v2c32 16.1 17.8 30.9 29 35 43.9 14.5 98.5-9.9 140 7v2c18.2 2.5 25.8 24.7 43 28 0.3 0.7 0.7 1.3 1 2 6.8 2.5 13.1 5.6 17 12 2.1 1.5 4.2 3.2 4.4 6 0.3 5.7-0.8 13.6-6.6 16.1-8.2 2.5-17.2 1.2-25.8 1.9-7.7 17.2-4 37.3-1 55h2c1.3 3.6 4.1 7 4 11h2c8.5 15.7 4.9 11 18 23v2h2c0.3 0.7 0.7 1.3 1 2 1.3 0.6 2.7 1.3 4 2 1.9 4.5 0.8 9.4 1 14z"/>
    <path class="st6" d="m793.2 1052.4c23-2.5 17.7 2.4 36 9v2c3.3 1.1 6.6 2.4 9 5v3c-4.7 1.3-8.1-2.1-12-4-10.2-1.5-18.3-9.2-29-7-7.6 18.4-2.6 38.6-4 58l-1 1h-5c-2.4-3.2-4.9-8.1-4.8-11.8 0.3-17-5.1-44.4 10.8-55.2z"/>
   </g>
   <g transform="matrix(.26458 0 0 .26458 -378.68 -386.95)" fill="#32242b">
    <path class="st7" d="m1201 1068c4 0.3 5.6 2.2 8.6 5.1 7.3 6.7 15.2 13.1 24.4 16.9v2c12.2 5.7 22.7 14.3 36 18 0.3 1 0.7 2 1 3 7.6 2.3 15.3 5.6 23 8 0.3 0.7 0.7 1.3 1 2 29.9 10.9 59.4 22.6 88 36v2c2.9 1 6 1.4 8 4 16.4 8.6 47.3 35 36 56h-2c-29.4 38.9-164.1 75.7-211.6 60.5-22.4-2.7-43.9-9.3-66.4-12.5v-2c-35.6-4.8-68.5-18.8-102-31v-2c-4.2-0.1-7.9-1-11-4-9.8-1.9-17.3-8.5-27-11v-2c-2.6-0.7-5.3-1.3-8-2v-2c-8.3-0.8-15-8.6-23-10v-2c-3.7-1.3-7.5-2.2-11-4v-2c-14.6-5.6-27.7-14-41-22l-1-2c-6.4-2.3-12.1-6.3-17-11 17.7 0.5 48.9 7.1 63-5h4v-2c19.6-10.7 34-29.2 53.3-40.2 29.9-13 63.4-5 95-6.5 20.4 2.1 39-7.9 56.7-15.3v-2c8.1-1.2 14.3-13.6 22-18 0.3-1 0.7-2 1-3z"/>
    <path class="st7" d="m538.9 1564.8c24.8-0.4 36.4 2.8 58.1 9.2v2c17.1 2.2 21.1 23.8 17 38-9.8 7.2-12.8 8.9-25.5 8.1-18.5-0.2-37.9-2.1-55.5 4.9-1 3.6-1.3 7.2-2 11h2c4.1 11.1 17.3 15 26 22 12.1 8.9 24.5 16.5 38 23v2c11.3 4.1 30.5 16.1 19 29-14.9 9.5-34.4 6-51 4v-2c-16.2 0.2-38.9-12.3-53-1-4.1 18.5 13 30.5 24.2 42.4 7.8 7.7 15.4 15.5 23.8 22.6 5.7 5.6 13.5 10 16 18 4.6 31.4-28.7 23.2-46 13-11.3-8.9-21.4-19.3-31-30-4.2-3.7-9.7-1.7-15-2-0.9 1.7-1.5 3.7-3 5 0.6 9.7 1.5 19.4 3 29 4.3 8.2 6.4 16.7 9.8 25.3 5.4 11.2 14.8 30.2 11.2 42.7-10.5 1.9-18.8-8.1-22-17-2.7-2.7-5.8-4.9-6-9-1-0.3-2-0.7-3-1-1.2-3.6-1.2-3.6-2-7h-3c-9.3-13-18.5-26.6-27-40-3.6-3.9-8.5-7.5-8-13-1-0.3-2-0.7-3-1v-3c-3.6-1.1-6.7-4-6-8h-2c-3.9-6.5-9.6-10.9-14-17-1.6-3.1-2.1-6.8-5-9v-3h-2v-2c-16.6-8.4-9.6-14.4 1-24 9.3-15.3 16.8-32.5 21-50h2c6-37.7 23.7-73.2 27-111 10.7-1.5 20.5 2.1 31 3 18.6 0.6 36.4-3 54.9-4.2z"/>
    <path class="st7" d="m668 2170c18.8-7.2 1.8 65.7 15.2 79.8 7 9.4 15 18.6 27.8 17.2v-2c6.2-4.6 11.6-10.5 14-18 6.2-8.6 11.2-17.7 16-27h2c0.1-4.9 2.5-7 5.9-10.6 5.4-5.8 10-13.5 19.1-12.4 3.3 22.4-18.1 37.5-19 59-1 0.3-2 0.7-3 1-1.8 31.4 8.2 51.9 43 42v-2c16.9-9.5 29.4-31.2 51-28 5.3 38.9-41.9 67-23 106 13.5 8.4 16.4 2.3 29 0v-2c10.1-2.2 30.6-4.8 31 10-11.2 12.1-20.9 26.1-35 35h-2c-0.3 1-0.7 2-1 3-2 0.7-4 1.3-6 2-0.3 1-0.7 2-1 3-11.2 2-26.2 10.3-35 12-17.9 6.2-48 6.9-45 33h-2c-5.8-13.4-5.8-13.4-8.1-19.2-1.7-5.8-6.4-10.8-6.9-16.8h-2c-27.6-54.2-60.1-110.9-110.9-146.7-3.9-3.5-11.1-5.2-11.1-11.3 16.9-11.2 19.1-32.9 24.8-50.9 5.2-18.8 14-48.4 32.2-56.1z"/>
    <path class="st7" d="m1273 1458c4.8-0.3 9-0.1 14 0-1.3 11.1-9.6 19.3-17 27-6.2 11.6-12.8 24.8-4 37 22.3 8.3 47.6-7.7 69 4-0.9 9.2-18.8 11.6-25.4 17.3-7.8 3.3-11.9 10.8-18.6 15.7-4.6 8.9-4.6 28 8 30v2c12.5 4.5 25.9 3.5 39 3 10.3-1.4 20.9-4 31-1-0.3 1.5-1.1 2.8-2 4-3.6 1.2-3.6 1.2-7 2v2c-21.7 11.7-34 15.7-31 44h2c6.1 9.4 18.5 11.8 29 13v2c5 1.8 10 3.2 15 5 5.3 9-4.1 14.8-11.7 17.9-22.9 7.7-50.6-2.8-72.3-10.9-25.5-2.4-51.8-1.9-76.7 4.6-9.3 1.3-16.3 9.6-25.3 10.4-0.2-11.9-1.6-23.3-3-35-4.8-10.8-7.8-21.3-11.7-32.4-2.6-8.2-4.1-16.9-8.3-24.6-3.5-4.4-4.2-9.6-5-15h-2c-9.9-18.3-18.4-38.1-30-55v-2c9.3-0.7 19.2 0.7 28-3 3.5-0.3 5.6-0.1 9 0v-2c7-1.6 14.1-3 21-5 4.6-3.1 7.9-3.9 13-5 0.3-1 0.7-2 1-3h3v-2c3.3-1.3 6.3-3.5 10-3v-3c8.1-1.9 12.5-9.4 19.2-13.9 10.3-7.3 19.3-16.9 31.8-20.1 2.2-2.5 4.6-4.4 8-5z"/>
    <path class="st7" d="m1439 1864h3c5.6 8.3 7.9 18.3 10 28h2c3.9 10.5 4.3 25.2 14 31 1.1 2.6 1.1 2.6 2 5 20.9 2.8 19.2-11.2 31-23 3.7-6.1 8.9-13.7 17-12 5.9 11.8-1.2 25.5-5 37-0.2 8.7 0 17.3 0 26h2c2.1 2 4.2 4.5 6 7v2c9.1 3.4 15.9 0.2 24-3 6.6-7.5 15.3-12.2 25-14v-2c3.9-2.1 8.7-0.7 13-1 1.8 14.2-8.7 25.4-13.2 38.1-3.8 12.6 1 24.7 11.9 31.9 22 9.9 47.7-12 67.3 3.1-0.3 2.3-0.7 4.6-1 7h-2c-5.3 10.3-18.3 25-30 27-0.3 1-0.7 2-1 3-2 0.3-4 0.7-6 1-0.3 1-0.7 2-1 3-28.5 10.4-56 32.7-64 63-1.6-0.4-2.6-1.1-4-2-1.8-4.1-3.4-8.2-6-12v-2h-2c-0.3-1.3-0.7-2.6-1-4h-2c-8.4-15.9-21.6-28.8-36-39.4-5.6-5.3-13-12.3-21-13.6v-2c-14.5-6-29-13.8-44-19v-2c-8.9-0.5-16.6-4.7-25-7v-2c-4.6-1-9.2-2-14-3v-2c54.4-39.5 17.4-106.9 50-148.1z"/>
    <path class="st7" d="m1140 1028c12.2-0.2 25-2.5 37 0 5.7 3.9 7.2 11 11.6 16.1 7.2 10.1-2.2 22-7.9 30.6-6.7 7.6-24.4 15.3-31.6 18.3-47 5.8-92.4-11.8-135.7 15.9-20.5 12.5-37.2 32.5-60.3 40.1-31.6 4.3-56.7-9.7-84-23-0.3-0.7-0.7-1.3-1-2-2.6-1.1-5.5-1.5-8-3-0.6-2.1-0.6-2.1-1-4 16.1-8.2 31.7-19.1 49-24v-2c72.5-36.2 151.2-57.5 231.9-63z"/>
    <path class="st8" d="m854 1145c18.1 12 35.3 26.6 54 38v2c3 0.6 6 1.2 9 2v2l4 1v2c7.8 1.6 13.4 7.8 21 10v2c3 1 5.9 2 9 3v2c4.5 1.3 8.7 3.1 13 5v2c11.7 1.5 20.2 10.6 30.8 15 20.2 7.7 38.5 19.6 59.2 26v2c14.2 3.1 26.2 11.9 41 13 8.6 6.7 21.3 6.5 31.6 9.9 12.1 3.1 24.3 6.1 36.4 9.1-0.3 0.7-0.7 1.3-1 2-43.3 12.3-90.5 15-133-1v-2c-21.6-3.5-40.4-17-61-24-0.3-0.7-0.7-1.3-1-2-2.6-1.3-5.4-1.8-8-3-0.3-0.7-0.7-1.3-1-2-3-1.4-6.1-2.5-9-4v-2c-20.7-6.9-77.3-64.9-83-86h-2c-3-7.3-9.6-14-10-22z"/>
    <path class="st7" d="m564 2267c59.6 37.8 117.7 92.8 147 156h2c3.5 4.5 4.3 9 6 14h2c6.5 19 20.1 35.9 23 56h2c5.4 11 6.2 23 6 35-8.1 0.3-14.8-2.8-18.7-10-47.3-55.8-97.3-115-122.3-184h-2c-10.1-24.5-26-46.6-45-65v-2z"/>
    <path class="st9" d="m1361.2 2030.7c21.6-1.2 42.7 2.1 62.8 10.3v2c17.6 3.4 33.5 12.4 49 21v2c20.9 11 37.1 29.2 51 48v4h2c2.4 7.9 10.2 12.2 9.9 21.5 1.3 20.3 7.6 31.9-3.9 41.5h-2v2h-3c-20.7-43.5-56.1-79.9-97-105-0.3-0.7-0.7-1.3-1-2-5.9-1-9-6-15-7-0.3-0.7-0.7-1.3-1-2-15.6-6.9-31.3-14.3-48-18v-2c-17.2-2.7-34.6-4.3-52-7v-3c14.4-7.6 32.3-5.6 48.2-6.3z"/>
    <path class="st10" d="m1109.8 1001.6c18.4-0.6 37.1-0.5 54.2 7.4v2c3.6 1.1 6.7 4 6 8-66.9-1.1-132.6 14.3-196 35l-1 2c-37.1 12.3-72.7 29-107 48h-2c1-2.9 3.3-6 6-8h2v-2c33.1-29 64.6-57.3 103.8-70.1 44.2-9 88.7-22.1 134-22.3z"/>
    <path class="st10" d="m1089 1512c12 1.9 28.3 22.4 36 32v2h2c22.4 44.5 63.7 106.6 43 157.6-1.9 5.6-5.6 10.1-11.2 12.3-8 6.6-12.6 10.4-23.8 10.1-3.7-35 6.4-71-5-105-1.3-18.8-10.3-36.2-13-55-2.9-6.4-7-12.9-7-20h-2c-1.8-4.3-5.5-8.1-5-13h-2c-1.8-2.9-5.2-6.2-5-10-1-0.3-2-0.7-3-1-1.8-3-4.1-6.4-4-10z"/>
    <path class="st9" d="m402 1502c8.5 3.8 24.8 1.7 27 13h2v2c11.4 5.8 25.9 16.6 23 31l-3-1c-2.2-6.8-4.3-13.4-10-18v-3c-4.3-1.7-7.8-4.8-11-8v-2c-2.5-0.2-4.5-0.5-7-1-4-5.1-12.2-5.7-18-4 3.1 9.5 15.8 3.9 25 24 0.7 0.3 1.3 0.7 2 1 0.6 3.1 0.6 3.1 1 6h2c11.4 31.2-5.8 61.8-14.4 91.3-6.6 21-27.3 91.5-54.6 87.7-2.5-1.2-3.4-3.3-3-6-2.6-1.2-5.5-2.4-7-5 0.9-7.3 10-16.7 16-21 1.4-6.8 6-10.8 10-16 6-16.7 14.1-32.5 18-50h2c0.7-8.6 1.3-17.2 2-26h2c0.7-7 1.4-14 1-21l-1-1c-1-15-0.9-30-2-45-2.8-9.3-2.2-18.5-2-28z"/>
    <path class="st7" d="m686 2183c16.7 9.6 35 12.8 54 13-12.2 18.3-22.3 38.5-37 55-13.1-2.5-13.8-19.8-14.1-30.8 0.3-13.2-3.8-24.1-2.9-37.2z"/>
    <path class="st10" d="m779 2218h3c6.6 12.4 16 25.5 29 32v2c2.9 0.9 6.1 1.4 8 4-8.5 3.8-15.6 7.1-22 14h-2c-1.6 5.5-7.2 7.8-11.3 11.1-5.6 4.8-12.3 7.2-19.7 5.9l-1-1c-4.1-31.1 11.5-40.9 16-68z"/>
    <path class="st11" d="m550 1637c20.9 1.1 42.1 2.3 63 0l1 1c1.3 12.6 0.5 25.5 3 38-8.5 1.7-15.6-10.6-25-13l-1-2c-10-4.5-21-7.2-31-12v-2c-4.2-1-7.4-3.6-10-7v-3z"/>
    <path class="st12" d="m598 1777h1c1.9 12.3-0.3 24.8 2 37 4 9.3 15.3 14.7 15 26h2c4.4 11.5-1.7 20.5-14 17-8-3.3-15.4-7.9-23-12-3.8-4.3-8.4-6.9-14-7v-1c35.6 3.4 27.2-37.1 31-60z"/>
    <path class="st13" d="m1339 1544h2c0.5 9.4 0.5 9.4 1 19 1 0.3 2 0.7 3 1l1 5c1.5 0 2.6 0.4 4 1 2 3 3.5 6.1 6 9-11.3 1.9-39.1 4.7-49 0-11.5-9.9 3.6-21 13.1-24.8 5.8-2 10.9-6.7 16.9-7.3v-2c0.7-0.2 1.3-0.6 2-0.9z"/>
    <path class="st13" d="m532 1725c26.6-3 35.8 13.6 60 17-2.5 9-10.4 16.1-12 26-5.6-3-14.5-5.6-15-13-5.2-0.6-9.2-3.1-12.4-7.2-6.3-7.2-14.3-12.6-20.6-19.8v-3z"/>
    <path class="st14" d="m528 1872h2c-8.4 13.6-5.9 23.3 3 36-0.3 8 2.9 18-4 24-19.3 3.7-33.6-16-37-33 11.9 5.9 17.7 2.8 28-3 0.3-5.6 0.7-11.2 1-17h2v-2c2.4-2.6 2.4-2.6 5-5z"/>
    <path class="st15" d="m1535 1907c10.3 8.3 17.7 20.9 32 23v2c-7.9 5.7-17.5 8.5-25 15-3.7 3.9-8 8.8-14 7-10.1-14.5 3.7-32.3 7-47z"/>
    <path class="st15" d="m1601 1955c0.7 0.3 1.3 0.7 2 1 3.8 16.5 10.7 24.9 23 36-4.6 1.4-9.1 3.5-14 3v2c-27.7 8.6-33.6 0.4-21-24h2c2.2-6.2 6.3-11.5 8-18z"/>
    <path class="st15" d="m846 2313c0.7 0.3 1.3 0.7 2 1 2.1 11.3 6.4 22.1 10 33h2c1.6 3.6 3.9 6.4 8 7-1-4.3-3-8.7-1-13 2 4.9 6.3 9.4 6 15 1.3 0.3 2.6 0.7 4 1h-13v-2c-13 1.2-22.6 2.5-35 7-2-16.6 6.1-23.5 11-38 0.7-0.3 1.3-0.7 2-1 1.7-3.1 1.5-7.3 4-10z"/>
    <path class="st13" d="m500 1804c5.2 2 9.9 7.1 14 11v2c6.1-0.4 8.8 5.6 13 9 3.4 2.1 7.2 3.2 9 7 1 0.3 2 0.7 3 1 0 5-4.9 6.9-8 10-4.7 4.6-5.1 13.1-12 15-4.7-7.5-1.7-19.1-10-24-4-10-6.6-20.5-9-31z"/>
    <path class="st16" d="m630 1583c3.4 3.7 8.6 4.2 13 6 0.3 0.7 0.7 1.3 1 2 6.8 2.5 13.1 5.6 17 12 2 1.5 4.2 3.2 4.4 6 0.3 5.7-0.8 13.6-6.6 16.1-8.2 2.5-17.2 1.2-25.8 1.9-6.4 12.7-3.5 27.2-4 41h-2c0.4-14.6-2.1-30.1 3-44 9.3-2.9 19.5-0.5 29-3l1-2h2c-0.2-3.7 0-7.4-1-11-1.2-1.1-2.5-2.1-4-3v-2h-5c1.2 6.3-0.4 16.5-9 14l-1-1h-7c-0.8-8.5 1-17.6-2.5-25.5-1.8-2.3-2.2-5.3-2.5-7.5z"/>
    <path class="st17" d="m1290 1477h2c2.3 7.6 6.9 13.9 10 21 2 2 5 3.2 6 6 2 0.7 2 0.7 4 1l1 4c-11.4 1.5-25.3 4.8-35 4l-1-1c-1.3-8.7 0.1-17.1 6-24h2c0.1-4.2 2.3-7.8 5-11z"/>
    <path class="st13" d="m1464 1876c2.9 0.8 2.9 0.8 6 2 0.3 1 0.7 2 1 3 3.9 2 9.5 1.2 13 4 5 0.5 10 0.7 15 1-2.1 5.2-6.1 9.1-10 13-4 4.3-4.7 11.1-10 14-7.9-0.4-9-12.1-10.5-18.3-0.7-6.3-5.1-12.1-4.5-18.7z"/>
   </g>
   <g stroke-width=".26458">
    <path class="st18" d="m-176.91-168.19c2.249-0.0265 4.4715 0.3175 6.4558 1.3758v0.52917c1.5346 0.66146 2.8046 1.8785 3.81 3.2014 0.60854 0.87313 0.55562 1.5875 1.2171 2.3548 1.9844 7.0644 0.15875 14.34-2.1431 21.087-0.76729 2.3283-1.9315 7.4083-2.4871 8.546-0.42334 1.4817-1.5081 2.54-2.0108 3.9688-0.26458 0.1852-0.52917 0.34395-0.79375 0.52916-0.84667-0.10583-0.84667-0.10583-1.5875-0.26458-1.7198-6.1383 0.87312-4.1804-3.7042-10.583-0.66146-0.3175-0.66146-0.3175-1.3229-0.52916-0.47626-0.50271-0.89959-0.92604-1.5875-1.0583-0.26458-0.44979-0.52916-0.87312-0.79375-1.3229-0.26458-0.0794-0.52917-0.18521-0.79375-0.26458-0.18521-0.26459-0.34396-0.52917-0.52917-0.79375v-0.79375c-3.4396-1.8785-6.4029-4.6831-8.2021-8.2021-2.249-2.4077-3.175-5.7944-2.6458-8.9958 3.519-5.5033 10.663-8.8106 17.119-8.7842z"/>
    <path class="st19" d="m-53.241-71.563c3.0427-0.79375 3.7571 0.79375 6.0854 2.1167 2.5929 2.1696 3.175 2.249 2.9104 5.8208-2.6988 1.0054-5.5827-0.21167-8.2021-0.79375v-0.52917c-3.4131-0.23812-4.101-5.5562-0.79375-6.6146z"/>
    <path class="st20" d="m-38.027-80.4c0.3175 0.02646 0.60854 0.07937 0.92604 0.10583 2.6194 2.1167 5.2388 7.5935 2.9104 10.583-0.60854 0.26458-1.1906 0.34396-1.8521 0.26458-1.9579-1.4023-4.6038-4.6831-5.1594-6.985-0.13229-2.249 0.66146-3.9952 3.175-3.9687z"/>
    <path class="st21" d="m-171.03-157.84c0.60854 0 1.0848 0.0529 1.6404 0.29104 1.2435 2.2754 2.6194 6.35-0.39688 7.8052-2.0902 1.1112-4.7096 3.0162-7.0115 1.4552-0.0794-3.0427 0.26459-6.059 1.8521-8.7312 1.1112-0.8202 2.5665-0.71437 3.9158-0.8202z" fill="#fffeff"/>
   </g>
  </g>
 </g>
</svg>
